{
  "source_midi": "David_Bowie_-_Space_Oddity.mid",
  "ticks_per_beat": 384,
  "tempo_bpm": 69,
  "tempo_changes": [
    {
      "tick": 0,
      "tempo_us": 869560,
      "bpm": 69
    }
  ],
  "selected_track_index": 7,
  "selected_track_name": "Choir",
  "max_rest_ms": 2000,
  "gate_ratio": 0.9,
  "loudness_levels": 3,
  "note_range": {
    "min_note": 48,
    "max_note": 96
  },
  "events": [
    {
      "start_ms": 0,
      "duration_ms": 331,
      "gate_ms": 298,
      "note": 60,
      "frequency_hz": 262,
      "loudness_level": 3,
      "velocity": 127
    },
    {
      "start_ms": 331,
      "duration_ms": 106,
      "rest": true
    },
    {
      "start_ms": 437,
      "duration_ms": 72,
      "gate_ms": 65,
      "note": 60,
      "frequency_hz": 262,
      "loudness_level": 3,
      "velocity": 127
    },
    {
      "start_ms": 509,
      "duration_ms": 145,
      "rest": true
    },
    {
      "start_ms": 654,
      "duration_ms": 469,
      "gate_ms": 422,
      "note": 60,
      "frequency_hz": 262,
      "loudness_level": 3,
      "velocity": 127
    },
    {
      "start_ms": 1123,
      "duration_ms": 179,
      "rest": true
    },
    {
      "start_ms": 1302,
      "duration_ms": 79,
      "gate_ms": 71,
      "note": 60,
      "frequency_hz": 262,
      "loudness_level": 3,
      "velocity": 127
    },
    {
      "start_ms": 1381,
      "duration_ms": 140,
      "rest": true
    },
    {
      "start_ms": 1521,
      "duration_ms": 874,
      "gate_ms": 787,
      "note": 60,
      "frequency_hz": 262,
      "loudness_level": 3,
      "velocity": 127
    },
    {
      "start_ms": 2395,
      "duration_ms": 2360,
      "gate_ms": 2124,
      "note": 59,
      "frequency_hz": 247,
      "loudness_level": 3,
      "velocity": 127
    },
    {
      "start_ms": 4755,
      "duration_ms": 2000,
      "rest": true
    },
    {
      "start_ms": 6755,
      "duration_ms": 290,
      "gate_ms": 261,
      "note": 60,
      "frequency_hz": 262,
      "loudness_level": 3,
      "velocity": 127
    },
    {
      "start_ms": 7045,
      "duration_ms": 140,
      "rest": true
    },
    {
      "start_ms": 7185,
      "duration_ms": 256,
      "gate_ms": 230,
      "note": 62,
      "frequency_hz": 294,
      "loudness_level": 3,
      "velocity": 127
    },
    {
      "start_ms": 7441,
      "duration_ms": 181,
      "rest": true
    },
    {
      "start_ms": 7622,
      "duration_ms": 251,
      "gate_ms": 226,
      "note": 60,
      "frequency_hz": 262,
      "loudness_level": 3,
      "velocity": 127
    },
    {
      "start_ms": 7873,
      "duration_ms": 186,
      "rest": true
    },
    {
      "start_ms": 8059,
      "duration_ms": 251,
      "gate_ms": 226,
      "note": 62,
      "frequency_hz": 294,
      "loudness_level": 3,
      "velocity": 127
    },
    {
      "start_ms": 8310,
      "duration_ms": 179,
      "rest": true
    },
    {
      "start_ms": 8489,
      "duration_ms": 362,
      "gate_ms": 326,
      "note": 60,
      "frequency_hz": 262,
      "loudness_level": 3,
      "velocity": 127
    },
    {
      "start_ms": 8851,
      "duration_ms": 72,
      "rest": true
    },
    {
      "start_ms": 8923,
      "duration_ms": 258,
      "gate_ms": 232,
      "note": 62,
      "frequency_hz": 294,
      "loudness_level": 3,
      "velocity": 127
    },
    {
      "start_ms": 9181,
      "duration_ms": 181,
      "rest": true
    },
    {
      "start_ms": 9362,
      "duration_ms": 285,
      "gate_ms": 257,
      "note": 60,
      "frequency_hz": 262,
      "loudness_level": 3,
      "velocity": 127
    },
    {
      "start_ms": 9647,
      "duration_ms": 145,
      "rest": true
    },
    {
      "start_ms": 9792,
      "duration_ms": 256,
      "gate_ms": 230,
      "note": 62,
      "frequency_hz": 294,
      "loudness_level": 3,
      "velocity": 127
    },
    {
      "start_ms": 10048,
      "duration_ms": 179,
      "rest": true
    },
    {
      "start_ms": 10227,
      "duration_ms": 367,
      "gate_ms": 330,
      "note": 60,
      "frequency_hz": 262,
      "loudness_level": 3,
      "velocity": 127
    },
    {
      "start_ms": 10594,
      "duration_ms": 68,
      "rest": true
    },
    {
      "start_ms": 10662,
      "duration_ms": 79,
      "gate_ms": 71,
      "note": 62,
      "frequency_hz": 294,
      "loudness_level": 3,
      "velocity": 127
    },
    {
      "start_ms": 10741,
      "duration_ms": 138,
      "rest": true
    },
    {
      "start_ms": 10879,
      "duration_ms": 1889,
      "gate_ms": 1700,
      "note": 60,
      "frequency_hz": 262,
      "loudness_level": 3,
      "velocity": 127
    },
    {
      "start_ms": 12768,
      "duration_ms": 2000,
      "rest": true
    },
    {
      "start_ms": 14768,
      "duration_ms": 220,
      "gate_ms": 198,
      "note": 64,
      "frequency_hz": 330,
      "loudness_level": 3,
      "velocity": 127
    },
    {
      "start_ms": 14988,
      "duration_ms": 102,
      "rest": true
    },
    {
      "start_ms": 15090,
      "duration_ms": 469,
      "gate_ms": 422,
      "note": 64,
      "frequency_hz": 330,
      "loudness_level": 3,
      "velocity": 127
    },
    {
      "start_ms": 15559,
      "duration_ms": 183,
      "rest": true
    },
    {
      "start_ms": 15742,
      "duration_ms": 362,
      "gate_ms": 326,
      "note": 64,
      "frequency_hz": 330,
      "loudness_level": 3,
      "velocity": 127
    },
    {
      "start_ms": 16104,
      "duration_ms": 75,
      "rest": true
    },
    {
      "start_ms": 16179,
      "duration_ms": 106,
      "gate_ms": 96,
      "note": 65,
      "frequency_hz": 349,
      "loudness_level": 3,
      "velocity": 127
    },
    {
      "start_ms": 16285,
      "duration_ms": 77,
      "rest": true
    },
    {
      "start_ms": 16362,
      "duration_ms": 577,
      "gate_ms": 520,
      "note": 67,
      "frequency_hz": 392,
      "loudness_level": 3,
      "velocity": 127
    },
    {
      "start_ms": 16939,
      "duration_ms": 106,
      "rest": true
    },
    {
      "start_ms": 17045,
      "duration_ms": 111,
      "gate_ms": 100,
      "note": 67,
      "frequency_hz": 392,
      "loudness_level": 3,
      "velocity": 127
    },
    {
      "start_ms": 17156,
      "duration_ms": 106,
      "rest": true
    },
    {
      "start_ms": 17262,
      "duration_ms": 584,
      "gate_ms": 526,
      "note": 67,
      "frequency_hz": 392,
      "loudness_level": 3,
      "velocity": 127
    },
    {
      "start_ms": 17846,
      "duration_ms": 70,
      "rest": true
    },
    {
      "start_ms": 17916,
      "duration_ms": 145,
      "gate_ms": 130,
      "note": 65,
      "frequency_hz": 349,
      "loudness_level": 3,
      "velocity": 127
    },
    {
      "start_ms": 18061,
      "duration_ms": 72,
      "rest": true
    },
    {
      "start_ms": 18133,
      "duration_ms": 1302,
      "gate_ms": 1172,
      "note": 64,
      "frequency_hz": 330,
      "loudness_level": 3,
      "velocity": 127
    },
    {
      "start_ms": 19435,
      "duration_ms": 217,
      "rest": true
    },
    {
      "start_ms": 19652,
      "duration_ms": 215,
      "gate_ms": 194,
      "note": 64,
      "frequency_hz": 330,
      "loudness_level": 3,
      "velocity": 127
    },
    {
      "start_ms": 19867,
      "duration_ms": 222,
      "rest": true
    },
    {
      "start_ms": 20089,
      "duration_ms": 254,
      "gate_ms": 228,
      "note": 64,
      "frequency_hz": 330,
      "loudness_level": 3,
      "velocity": 127
    },
    {
      "start_ms": 20343,
      "duration_ms": 179,
      "rest": true
    },
    {
      "start_ms": 20522,
      "duration_ms": 292,
      "gate_ms": 263,
      "note": 64,
      "frequency_hz": 330,
      "loudness_level": 3,
      "velocity": 127
    },
    {
      "start_ms": 20814,
      "duration_ms": 149,
      "rest": true
    },
    {
      "start_ms": 20963,
      "duration_ms": 290,
      "gate_ms": 261,
      "note": 64,
      "frequency_hz": 330,
      "loudness_level": 3,
      "velocity": 127
    },
    {
      "start_ms": 21253,
      "duration_ms": 145,
      "rest": true
    },
    {
      "start_ms": 21398,
      "duration_ms": 70,
      "gate_ms": 63,
      "note": 64,
      "frequency_hz": 330,
      "loudness_level": 3,
      "velocity": 127
    },
    {
      "start_ms": 21468,
      "duration_ms": 143,
      "rest": true
    },
    {
      "start_ms": 21611,
      "duration_ms": 2319,
      "gate_ms": 2087,
      "note": 65,
      "frequency_hz": 349,
      "loudness_level": 3,
      "velocity": 127
    },
    {
      "start_ms": 23930,
      "duration_ms": 507,
      "rest": true
    },
    {
      "start_ms": 24437,
      "duration_ms": 181,
      "gate_ms": 163,
      "note": 65,
      "frequency_hz": 349,
      "loudness_level": 3,
      "velocity": 127
    },
    {
      "start_ms": 24618,
      "duration_ms": 254,
      "rest": true
    },
    {
      "start_ms": 24872,
      "duration_ms": 258,
      "gate_ms": 232,
      "note": 65,
      "frequency_hz": 349,
      "loudness_level": 3,
      "velocity": 127
    },
    {
      "start_ms": 25130,
      "duration_ms": 177,
      "rest": true
    },
    {
      "start_ms": 25307,
      "duration_ms": 111,
      "gate_ms": 100,
      "note": 65,
      "frequency_hz": 349,
      "loudness_level": 3,
      "velocity": 127
    },
    {
      "start_ms": 25418,
      "duration_ms": 106,
      "rest": true
    },
    {
      "start_ms": 25524,
      "duration_ms": 403,
      "gate_ms": 363,
      "note": 65,
      "frequency_hz": 349,
      "loudness_level": 3,
      "velocity": 127
    },
    {
      "start_ms": 25927,
      "duration_ms": 249,
      "rest": true
    },
    {
      "start_ms": 26176,
      "duration_ms": 326,
      "gate_ms": 293,
      "note": 65,
      "frequency_hz": 349,
      "loudness_level": 3,
      "velocity": 127
    },
    {
      "start_ms": 26502,
      "duration_ms": 113,
      "rest": true
    },
    {
      "start_ms": 26615,
      "duration_ms": 140,
      "gate_ms": 126,
      "note": 67,
      "frequency_hz": 392,
      "loudness_level": 3,
      "velocity": 127
    },
    {
      "start_ms": 26755,
      "duration_ms": 36,
      "rest": true
    },
    {
      "start_ms": 26791,
      "duration_ms": 618,
      "gate_ms": 556,
      "note": 64,
      "frequency_hz": 330,
      "loudness_level": 3,
      "velocity": 127
    },
    {
      "start_ms": 27409,
      "duration_ms": 70,
      "rest": true
    },
    {
      "start_ms": 27479,
      "duration_ms": 326,
      "gate_ms": 293,
      "note": 64,
      "frequency_hz": 330,
      "loudness_level": 3,
      "velocity": 127
    },
    {
      "start_ms": 27805,
      "duration_ms": 104,
      "rest": true
    },
    {
      "start_ms": 27909,
      "duration_ms": 328,
      "gate_ms": 296,
      "note": 64,
      "frequency_hz": 330,
      "loudness_level": 3,
      "velocity": 127
    },
    {
      "start_ms": 28237,
      "duration_ms": 109,
      "rest": true
    },
    {
      "start_ms": 28346,
      "duration_ms": 111,
      "gate_ms": 100,
      "note": 64,
      "frequency_hz": 330,
      "loudness_level": 3,
      "velocity": 127
    },
    {
      "start_ms": 28457,
      "duration_ms": 111,
      "rest": true
    },
    {
      "start_ms": 28568,
      "duration_ms": 469,
      "gate_ms": 422,
      "note": 65,
      "frequency_hz": 349,
      "loudness_level": 3,
      "velocity": 127
    },
    {
      "start_ms": 29037,
      "duration_ms": 181,
      "rest": true
    },
    {
      "start_ms": 29218,
      "duration_ms": 1886,
      "gate_ms": 1698,
      "note": 65,
      "frequency_hz": 349,
      "loudness_level": 3,
      "velocity": 127
    },
    {
      "start_ms": 31104,
      "duration_ms": 285,
      "rest": true
    },
    {
      "start_ms": 31389,
      "duration_ms": 292,
      "gate_ms": 263,
      "note": 65,
      "frequency_hz": 349,
      "loudness_level": 3,
      "velocity": 127
    },
    {
      "start_ms": 31681,
      "duration_ms": 147,
      "rest": true
    },
    {
      "start_ms": 31828,
      "duration_ms": 256,
      "gate_ms": 230,
      "note": 65,
      "frequency_hz": 349,
      "loudness_level": 3,
      "velocity": 127
    },
    {
      "start_ms": 32084,
      "duration_ms": 102,
      "rest": true
    },
    {
      "start_ms": 32186,
      "duration_ms": 326,
      "gate_ms": 293,
      "note": 65,
      "frequency_hz": 349,
      "loudness_level": 3,
      "velocity": 127
    },
    {
      "start_ms": 32512,
      "duration_ms": 181,
      "rest": true
    },
    {
      "start_ms": 32693,
      "duration_ms": 186,
      "gate_ms": 167,
      "note": 65,
      "frequency_hz": 349,
      "loudness_level": 3,
      "velocity": 127
    },
    {
      "start_ms": 32879,
      "duration_ms": 251,
      "rest": true
    },
    {
      "start_ms": 33130,
      "duration_ms": 362,
      "gate_ms": 326,
      "note": 65,
      "frequency_hz": 349,
      "loudness_level": 3,
      "velocity": 127
    },
    {
      "start_ms": 33492,
      "duration_ms": 72,
      "rest": true
    },
    {
      "start_ms": 33564,
      "duration_ms": 399,
      "gate_ms": 359,
      "note": 67,
      "frequency_hz": 392,
      "loudness_level": 3,
      "velocity": 127
    },
    {
      "start_ms": 33963,
      "duration_ms": 36,
      "rest": true
    },
    {
      "start_ms": 33999,
      "duration_ms": 326,
      "gate_ms": 293,
      "note": 64,
      "frequency_hz": 330,
      "loudness_level": 3,
      "velocity": 127
    },
    {
      "start_ms": 34325,
      "duration_ms": 106,
      "rest": true
    },
    {
      "start_ms": 34431,
      "duration_ms": 403,
      "gate_ms": 363,
      "note": 64,
      "frequency_hz": 330,
      "loudness_level": 3,
      "velocity": 127
    },
    {
      "start_ms": 34834,
      "duration_ms": 41,
      "rest": true
    },
    {
      "start_ms": 34875,
      "duration_ms": 394,
      "gate_ms": 355,
      "note": 64,
      "frequency_hz": 330,
      "loudness_level": 3,
      "velocity": 127
    },
    {
      "start_ms": 35269,
      "duration_ms": 34,
      "rest": true
    },
    {
      "start_ms": 35303,
      "duration_ms": 72,
      "gate_ms": 65,
      "note": 65,
      "frequency_hz": 349,
      "loudness_level": 3,
      "velocity": 127
    },
    {
      "start_ms": 35375,
      "duration_ms": 145,
      "rest": true
    },
    {
      "start_ms": 35520,
      "duration_ms": 543,
      "gate_ms": 489,
      "note": 65,
      "frequency_hz": 349,
      "loudness_level": 3,
      "velocity": 127
    },
    {
      "start_ms": 36063,
      "duration_ms": 109,
      "rest": true
    },
    {
      "start_ms": 36172,
      "duration_ms": 2176,
      "gate_ms": 1959,
      "note": 65,
      "frequency_hz": 349,
      "loudness_level": 3,
      "velocity": 127
    },
    {
      "start_ms": 38348,
      "duration_ms": 2000,
      "rest": true
    },
    {
      "start_ms": 40348,
      "duration_ms": 258,
      "gate_ms": 232,
      "note": 65,
      "frequency_hz": 349,
      "loudness_level": 3,
      "velocity": 127
    },
    {
      "start_ms": 40606,
      "duration_ms": 147,
      "rest": true
    },
    {
      "start_ms": 40753,
      "duration_ms": 217,
      "gate_ms": 196,
      "note": 65,
      "frequency_hz": 349,
      "loudness_level": 3,
      "velocity": 127
    },
    {
      "start_ms": 40970,
      "duration_ms": 254,
      "rest": true
    },
    {
      "start_ms": 41224,
      "duration_ms": 251,
      "gate_ms": 226,
      "note": 65,
      "frequency_hz": 349,
      "loudness_level": 3,
      "velocity": 127
    },
    {
      "start_ms": 41475,
      "duration_ms": 183,
      "rest": true
    },
    {
      "start_ms": 41658,
      "duration_ms": 215,
      "gate_ms": 194,
      "note": 65,
      "frequency_hz": 349,
      "loudness_level": 3,
      "velocity": 127
    },
    {
      "start_ms": 41873,
      "duration_ms": 220,
      "rest": true
    },
    {
      "start_ms": 42093,
      "duration_ms": 215,
      "gate_ms": 194,
      "note": 65,
      "frequency_hz": 349,
      "loudness_level": 3,
      "velocity": 127
    },
    {
      "start_ms": 42308,
      "duration_ms": 192,
      "rest": true
    },
    {
      "start_ms": 42500,
      "duration_ms": 204,
      "gate_ms": 183,
      "note": 65,
      "frequency_hz": 349,
      "loudness_level": 3,
      "velocity": 127
    },
    {
      "start_ms": 42704,
      "duration_ms": 5,
      "rest": true
    },
    {
      "start_ms": 42709,
      "duration_ms": 498,
      "gate_ms": 448,
      "note": 64,
      "frequency_hz": 330,
      "loudness_level": 3,
      "velocity": 127
    },
    {
      "start_ms": 43207,
      "duration_ms": 188,
      "rest": true
    },
    {
      "start_ms": 43395,
      "duration_ms": 75,
      "gate_ms": 67,
      "note": 64,
      "frequency_hz": 330,
      "loudness_level": 3,
      "velocity": 127
    },
    {
      "start_ms": 43470,
      "duration_ms": 140,
      "rest": true
    },
    {
      "start_ms": 43610,
      "duration_ms": 328,
      "gate_ms": 296,
      "note": 64,
      "frequency_hz": 330,
      "loudness_level": 3,
      "velocity": 127
    },
    {
      "start_ms": 43938,
      "duration_ms": 111,
      "rest": true
    },
    {
      "start_ms": 44049,
      "duration_ms": 70,
      "gate_ms": 63,
      "note": 64,
      "frequency_hz": 330,
      "loudness_level": 3,
      "velocity": 127
    },
    {
      "start_ms": 44119,
      "duration_ms": 143,
      "rest": true
    },
    {
      "start_ms": 44262,
      "duration_ms": 111,
      "gate_ms": 100,
      "note": 64,
      "frequency_hz": 330,
      "loudness_level": 3,
      "velocity": 127
    },
    {
      "start_ms": 44373,
      "duration_ms": 111,
      "rest": true
    },
    {
      "start_ms": 44484,
      "duration_ms": 541,
      "gate_ms": 487,
      "note": 65,
      "frequency_hz": 349,
      "loudness_level": 3,
      "velocity": 127
    },
    {
      "start_ms": 45025,
      "duration_ms": 109,
      "rest": true
    },
    {
      "start_ms": 45134,
      "duration_ms": 1633,
      "gate_ms": 1469,
      "note": 65,
      "frequency_hz": 349,
      "loudness_level": 3,
      "velocity": 127
    },
    {
      "start_ms": 46767,
      "duration_ms": 539,
      "rest": true
    },
    {
      "start_ms": 47306,
      "duration_ms": 195,
      "gate_ms": 175,
      "note": 65,
      "frequency_hz": 349,
      "loudness_level": 3,
      "velocity": 127
    },
    {
      "start_ms": 47501,
      "duration_ms": 211,
      "rest": true
    },
    {
      "start_ms": 47712,
      "duration_ms": 251,
      "gate_ms": 226,
      "note": 65,
      "frequency_hz": 349,
      "loudness_level": 3,
      "velocity": 127
    },
    {
      "start_ms": 47963,
      "duration_ms": 220,
      "rest": true
    },
    {
      "start_ms": 48183,
      "duration_ms": 251,
      "gate_ms": 226,
      "note": 65,
      "frequency_hz": 349,
      "loudness_level": 3,
      "velocity": 127
    },
    {
      "start_ms": 48434,
      "duration_ms": 179,
      "rest": true
    },
    {
      "start_ms": 48613,
      "duration_ms": 220,
      "gate_ms": 198,
      "note": 65,
      "frequency_hz": 349,
      "loudness_level": 3,
      "velocity": 127
    },
    {
      "start_ms": 48833,
      "duration_ms": 181,
      "rest": true
    },
    {
      "start_ms": 49014,
      "duration_ms": 358,
      "gate_ms": 322,
      "note": 65,
      "frequency_hz": 349,
      "loudness_level": 3,
      "velocity": 127
    },
    {
      "start_ms": 49372,
      "duration_ms": 111,
      "rest": true
    },
    {
      "start_ms": 49483,
      "duration_ms": 362,
      "gate_ms": 326,
      "note": 67,
      "frequency_hz": 392,
      "loudness_level": 3,
      "velocity": 127
    },
    {
      "start_ms": 49845,
      "duration_ms": 70,
      "rest": true
    },
    {
      "start_ms": 49915,
      "duration_ms": 149,
      "gate_ms": 135,
      "note": 64,
      "frequency_hz": 330,
      "loudness_level": 3,
      "velocity": 127
    },
    {
      "start_ms": 50064,
      "duration_ms": 68,
      "rest": true
    },
    {
      "start_ms": 50132,
      "duration_ms": 111,
      "gate_ms": 100,
      "note": 65,
      "frequency_hz": 349,
      "loudness_level": 3,
      "velocity": 127
    },
    {
      "start_ms": 50243,
      "duration_ms": 75,
      "rest": true
    },
    {
      "start_ms": 50318,
      "duration_ms": 360,
      "gate_ms": 324,
      "note": 64,
      "frequency_hz": 330,
      "loudness_level": 3,
      "velocity": 127
    },
    {
      "start_ms": 50678,
      "duration_ms": 541,
      "rest": true
    },
    {
      "start_ms": 51219,
      "duration_ms": 147,
      "gate_ms": 132,
      "note": 62,
      "frequency_hz": 294,
      "loudness_level": 3,
      "velocity": 127
    },
    {
      "start_ms": 51366,
      "duration_ms": 70,
      "rest": true
    },
    {
      "start_ms": 51436,
      "duration_ms": 582,
      "gate_ms": 524,
      "note": 65,
      "frequency_hz": 349,
      "loudness_level": 3,
      "velocity": 127
    },
    {
      "start_ms": 52018,
      "duration_ms": 72,
      "rest": true
    },
    {
      "start_ms": 52090,
      "duration_ms": 186,
      "gate_ms": 167,
      "note": 64,
      "frequency_hz": 330,
      "loudness_level": 3,
      "velocity": 127
    },
    {
      "start_ms": 52276,
      "duration_ms": 179,
      "gate_ms": 161,
      "note": 62,
      "frequency_hz": 294,
      "loudness_level": 3,
      "velocity": 127
    },
    {
      "start_ms": 52455,
      "duration_ms": 68,
      "rest": true
    },
    {
      "start_ms": 52523,
      "duration_ms": 1852,
      "gate_ms": 1667,
      "note": 60,
      "frequency_hz": 262,
      "loudness_level": 3,
      "velocity": 127
    },
    {
      "start_ms": 54375,
      "duration_ms": 294,
      "rest": true
    },
    {
      "start_ms": 54669,
      "duration_ms": 317,
      "gate_ms": 285,
      "note": 57,
      "frequency_hz": 220,
      "loudness_level": 3,
      "velocity": 127
    },
    {
      "start_ms": 54986,
      "duration_ms": 113,
      "rest": true
    },
    {
      "start_ms": 55099,
      "duration_ms": 2570,
      "gate_ms": 2313,
      "note": 60,
      "frequency_hz": 262,
      "loudness_level": 3,
      "velocity": 127
    },
    {
      "start_ms": 57669,
      "duration_ms": 36,
      "rest": true
    },
    {
      "start_ms": 57705,
      "duration_ms": 399,
      "gate_ms": 359,
      "note": 59,
      "frequency_hz": 247,
      "loudness_level": 3,
      "velocity": 127
    },
    {
      "start_ms": 58104,
      "duration_ms": 36,
      "rest": true
    },
    {
      "start_ms": 58140,
      "duration_ms": 365,
      "gate_ms": 328,
      "note": 57,
      "frequency_hz": 220,
      "loudness_level": 3,
      "velocity": 127
    },
    {
      "start_ms": 58505,
      "duration_ms": 109,
      "rest": true
    },
    {
      "start_ms": 58614,
      "duration_ms": 68,
      "gate_ms": 61,
      "note": 55,
      "frequency_hz": 196,
      "loudness_level": 3,
      "velocity": 127
    },
    {
      "start_ms": 58682,
      "duration_ms": 145,
      "rest": true
    },
    {
      "start_ms": 58827,
      "duration_ms": 75,
      "gate_ms": 67,
      "note": 55,
      "frequency_hz": 196,
      "loudness_level": 3,
      "velocity": 127
    },
    {
      "start_ms": 58902,
      "duration_ms": 111,
      "rest": true
    },
    {
      "start_ms": 59013,
      "duration_ms": 179,
      "gate_ms": 161,
      "note": 55,
      "frequency_hz": 196,
      "loudness_level": 3,
      "velocity": 127
    },
    {
      "start_ms": 59192,
      "duration_ms": 181,
      "gate_ms": 163,
      "note": 57,
      "frequency_hz": 220,
      "loudness_level": 3,
      "velocity": 127
    },
    {
      "start_ms": 59373,
      "duration_ms": 38,
      "rest": true
    },
    {
      "start_ms": 59411,
      "duration_ms": 288,
      "gate_ms": 259,
      "note": 55,
      "frequency_hz": 196,
      "loudness_level": 3,
      "velocity": 127
    },
    {
      "start_ms": 59699,
      "duration_ms": 183,
      "rest": true
    },
    {
      "start_ms": 59882,
      "duration_ms": 1664,
      "gate_ms": 1498,
      "note": 50,
      "frequency_hz": 147,
      "loudness_level": 3,
      "velocity": 127
    },
    {
      "start_ms": 61546,
      "duration_ms": 512,
      "rest": true
    },
    {
      "start_ms": 62058,
      "duration_ms": 2061,
      "gate_ms": 1855,
      "note": 60,
      "frequency_hz": 262,
      "loudness_level": 3,
      "velocity": 127
    },
    {
      "start_ms": 64119,
      "duration_ms": 109,
      "rest": true
    },
    {
      "start_ms": 64228,
      "duration_ms": 220,
      "gate_ms": 198,
      "note": 60,
      "frequency_hz": 262,
      "loudness_level": 3,
      "velocity": 127
    },
    {
      "start_ms": 64448,
      "duration_ms": 34,
      "rest": true
    },
    {
      "start_ms": 64482,
      "duration_ms": 616,
      "gate_ms": 554,
      "note": 59,
      "frequency_hz": 247,
      "loudness_level": 3,
      "velocity": 127
    },
    {
      "start_ms": 65098,
      "duration_ms": 217,
      "gate_ms": 196,
      "note": 57,
      "frequency_hz": 220,
      "loudness_level": 3,
      "velocity": 127
    },
    {
      "start_ms": 65315,
      "duration_ms": 2754,
      "gate_ms": 2478,
      "note": 55,
      "frequency_hz": 196,
      "loudness_level": 3,
      "velocity": 127
    },
    {
      "start_ms": 68069,
      "duration_ms": 978,
      "rest": true
    },
    {
      "start_ms": 69047,
      "duration_ms": 111,
      "gate_ms": 100,
      "note": 58,
      "frequency_hz": 233,
      "loudness_level": 3,
      "velocity": 127
    },
    {
      "start_ms": 69158,
      "duration_ms": 104,
      "rest": true
    },
    {
      "start_ms": 69262,
      "duration_ms": 254,
      "gate_ms": 228,
      "note": 58,
      "frequency_hz": 233,
      "loudness_level": 3,
      "velocity": 127
    },
    {
      "start_ms": 69516,
      "duration_ms": 147,
      "rest": true
    },
    {
      "start_ms": 69663,
      "duration_ms": 580,
      "gate_ms": 522,
      "note": 58,
      "frequency_hz": 233,
      "loudness_level": 3,
      "velocity": 127
    },
    {
      "start_ms": 70243,
      "duration_ms": 38,
      "rest": true
    },
    {
      "start_ms": 70281,
      "duration_ms": 433,
      "gate_ms": 389,
      "note": 60,
      "frequency_hz": 262,
      "loudness_level": 3,
      "velocity": 127
    },
    {
      "start_ms": 70714,
      "duration_ms": 38,
      "rest": true
    },
    {
      "start_ms": 70752,
      "duration_ms": 686,
      "gate_ms": 618,
      "note": 57,
      "frequency_hz": 220,
      "loudness_level": 3,
      "velocity": 127
    },
    {
      "start_ms": 71438,
      "duration_ms": 183,
      "rest": true
    },
    {
      "start_ms": 71621,
      "duration_ms": 285,
      "gate_ms": 257,
      "note": 57,
      "frequency_hz": 220,
      "loudness_level": 3,
      "velocity": 127
    },
    {
      "start_ms": 71906,
      "duration_ms": 149,
      "rest": true
    },
    {
      "start_ms": 72055,
      "duration_ms": 254,
      "gate_ms": 228,
      "note": 57,
      "frequency_hz": 220,
      "loudness_level": 3,
      "velocity": 127
    },
    {
      "start_ms": 72309,
      "duration_ms": 181,
      "rest": true
    },
    {
      "start_ms": 72490,
      "duration_ms": 145,
      "gate_ms": 130,
      "note": 55,
      "frequency_hz": 196,
      "loudness_level": 3,
      "velocity": 127
    },
    {
      "start_ms": 72635,
      "duration_ms": 111,
      "rest": true
    },
    {
      "start_ms": 72746,
      "duration_ms": 392,
      "gate_ms": 353,
      "note": 55,
      "frequency_hz": 196,
      "loudness_level": 3,
      "velocity": 127
    },
    {
      "start_ms": 73138,
      "duration_ms": 618,
      "gate_ms": 556,
      "note": 57,
      "frequency_hz": 220,
      "loudness_level": 3,
      "velocity": 127
    },
    {
      "start_ms": 73756,
      "duration_ms": 41,
      "rest": true
    },
    {
      "start_ms": 73797,
      "duration_ms": 215,
      "gate_ms": 194,
      "note": 55,
      "frequency_hz": 196,
      "loudness_level": 3,
      "velocity": 127
    },
    {
      "start_ms": 74012,
      "duration_ms": 143,
      "gate_ms": 128,
      "note": 53,
      "frequency_hz": 175,
      "loudness_level": 3,
      "velocity": 127
    },
    {
      "start_ms": 74155,
      "duration_ms": 72,
      "rest": true
    },
    {
      "start_ms": 74227,
      "duration_ms": 2645,
      "gate_ms": 2380,
      "note": 53,
      "frequency_hz": 175,
      "loudness_level": 3,
      "velocity": 127
    },
    {
      "start_ms": 76872,
      "duration_ms": 2000,
      "rest": true
    },
    {
      "start_ms": 78872,
      "duration_ms": 106,
      "gate_ms": 96,
      "note": 64,
      "frequency_hz": 330,
      "loudness_level": 3,
      "velocity": 127
    },
    {
      "start_ms": 78978,
      "duration_ms": 86,
      "rest": true
    },
    {
      "start_ms": 79064,
      "duration_ms": 460,
      "gate_ms": 414,
      "note": 64,
      "frequency_hz": 330,
      "loudness_level": 3,
      "velocity": 127
    },
    {
      "start_ms": 79524,
      "duration_ms": 215,
      "rest": true
    },
    {
      "start_ms": 79739,
      "duration_ms": 365,
      "gate_ms": 328,
      "note": 64,
      "frequency_hz": 330,
      "loudness_level": 3,
      "velocity": 127
    },
    {
      "start_ms": 80104,
      "duration_ms": 75,
      "rest": true
    },
    {
      "start_ms": 80179,
      "duration_ms": 104,
      "gate_ms": 94,
      "note": 65,
      "frequency_hz": 349,
      "loudness_level": 3,
      "velocity": 127
    },
    {
      "start_ms": 80283,
      "duration_ms": 111,
      "rest": true
    },
    {
      "start_ms": 80394,
      "duration_ms": 546,
      "gate_ms": 491,
      "note": 67,
      "frequency_hz": 392,
      "loudness_level": 3,
      "velocity": 127
    },
    {
      "start_ms": 80940,
      "duration_ms": 106,
      "rest": true
    },
    {
      "start_ms": 81046,
      "duration_ms": 111,
      "gate_ms": 100,
      "note": 67,
      "frequency_hz": 392,
      "loudness_level": 3,
      "velocity": 127
    },
    {
      "start_ms": 81157,
      "duration_ms": 72,
      "rest": true
    },
    {
      "start_ms": 81229,
      "duration_ms": 614,
      "gate_ms": 552,
      "note": 67,
      "frequency_hz": 392,
      "loudness_level": 3,
      "velocity": 127
    },
    {
      "start_ms": 81843,
      "duration_ms": 75,
      "rest": true
    },
    {
      "start_ms": 81918,
      "duration_ms": 140,
      "gate_ms": 126,
      "note": 65,
      "frequency_hz": 349,
      "loudness_level": 3,
      "velocity": 127
    },
    {
      "start_ms": 82058,
      "duration_ms": 70,
      "rest": true
    },
    {
      "start_ms": 82128,
      "duration_ms": 1273,
      "gate_ms": 1145,
      "note": 64,
      "frequency_hz": 330,
      "loudness_level": 3,
      "velocity": 127
    },
    {
      "start_ms": 83401,
      "duration_ms": 251,
      "rest": true
    },
    {
      "start_ms": 83652,
      "duration_ms": 215,
      "gate_ms": 194,
      "note": 64,
      "frequency_hz": 330,
      "loudness_level": 3,
      "velocity": 127
    },
    {
      "start_ms": 83867,
      "duration_ms": 224,
      "rest": true
    },
    {
      "start_ms": 84091,
      "duration_ms": 249,
      "gate_ms": 224,
      "note": 64,
      "frequency_hz": 330,
      "loudness_level": 3,
      "velocity": 127
    },
    {
      "start_ms": 84340,
      "duration_ms": 181,
      "rest": true
    },
    {
      "start_ms": 84521,
      "duration_ms": 294,
      "gate_ms": 265,
      "note": 64,
      "frequency_hz": 330,
      "loudness_level": 3,
      "velocity": 127
    },
    {
      "start_ms": 84815,
      "duration_ms": 140,
      "rest": true
    },
    {
      "start_ms": 84955,
      "duration_ms": 294,
      "gate_ms": 265,
      "note": 64,
      "frequency_hz": 330,
      "loudness_level": 3,
      "velocity": 127
    },
    {
      "start_ms": 85249,
      "duration_ms": 138,
      "rest": true
    },
    {
      "start_ms": 85387,
      "duration_ms": 82,
      "gate_ms": 73,
      "note": 64,
      "frequency_hz": 330,
      "loudness_level": 3,
      "velocity": 127
    },
    {
      "start_ms": 85469,
      "duration_ms": 143,
      "rest": true
    },
    {
      "start_ms": 85612,
      "duration_ms": 2314,
      "gate_ms": 2083,
      "note": 65,
      "frequency_hz": 349,
      "loudness_level": 3,
      "velocity": 127
    },
    {
      "start_ms": 87926,
      "duration_ms": 510,
      "rest": true
    },
    {
      "start_ms": 88436,
      "duration_ms": 181,
      "gate_ms": 163,
      "note": 65,
      "frequency_hz": 349,
      "loudness_level": 3,
      "velocity": 127
    },
    {
      "start_ms": 88617,
      "duration_ms": 256,
      "rest": true
    },
    {
      "start_ms": 88873,
      "duration_ms": 251,
      "gate_ms": 226,
      "note": 65,
      "frequency_hz": 349,
      "loudness_level": 3,
      "velocity": 127
    },
    {
      "start_ms": 89124,
      "duration_ms": 186,
      "rest": true
    },
    {
      "start_ms": 89310,
      "duration_ms": 104,
      "gate_ms": 94,
      "note": 65,
      "frequency_hz": 349,
      "loudness_level": 3,
      "velocity": 127
    },
    {
      "start_ms": 89414,
      "duration_ms": 109,
      "rest": true
    },
    {
      "start_ms": 89523,
      "duration_ms": 433,
      "gate_ms": 389,
      "note": 65,
      "frequency_hz": 349,
      "loudness_level": 3,
      "velocity": 127
    },
    {
      "start_ms": 89956,
      "duration_ms": 217,
      "rest": true
    },
    {
      "start_ms": 90173,
      "duration_ms": 328,
      "gate_ms": 296,
      "note": 65,
      "frequency_hz": 349,
      "loudness_level": 3,
      "velocity": 127
    },
    {
      "start_ms": 90501,
      "duration_ms": 102,
      "rest": true
    },
    {
      "start_ms": 90603,
      "duration_ms": 152,
      "gate_ms": 137,
      "note": 67,
      "frequency_hz": 392,
      "loudness_level": 3,
      "velocity": 127
    },
    {
      "start_ms": 90755,
      "duration_ms": 75,
      "rest": true
    },
    {
      "start_ms": 90830,
      "duration_ms": 580,
      "gate_ms": 522,
      "note": 64,
      "frequency_hz": 330,
      "loudness_level": 3,
      "velocity": 127
    },
    {
      "start_ms": 91410,
      "duration_ms": 70,
      "rest": true
    },
    {
      "start_ms": 91480,
      "duration_ms": 326,
      "gate_ms": 293,
      "note": 64,
      "frequency_hz": 330,
      "loudness_level": 3,
      "velocity": 127
    },
    {
      "start_ms": 91806,
      "duration_ms": 109,
      "rest": true
    },
    {
      "start_ms": 91915,
      "duration_ms": 326,
      "gate_ms": 293,
      "note": 64,
      "frequency_hz": 330,
      "loudness_level": 3,
      "velocity": 127
    },
    {
      "start_ms": 92241,
      "duration_ms": 111,
      "rest": true
    },
    {
      "start_ms": 92352,
      "duration_ms": 106,
      "gate_ms": 96,
      "note": 64,
      "frequency_hz": 330,
      "loudness_level": 3,
      "velocity": 127
    },
    {
      "start_ms": 92458,
      "duration_ms": 104,
      "rest": true
    },
    {
      "start_ms": 92562,
      "duration_ms": 478,
      "gate_ms": 430,
      "note": 65,
      "frequency_hz": 349,
      "loudness_level": 3,
      "velocity": 127
    },
    {
      "start_ms": 93040,
      "duration_ms": 181,
      "rest": true
    },
    {
      "start_ms": 93221,
      "duration_ms": 1884,
      "gate_ms": 1696,
      "note": 65,
      "frequency_hz": 349,
      "loudness_level": 3,
      "velocity": 127
    },
    {
      "start_ms": 95105,
      "duration_ms": 2000,
      "rest": true
    },
    {
      "start_ms": 97105,
      "duration_ms": 181,
      "gate_ms": 163,
      "note": 62,
      "frequency_hz": 294,
      "loudness_level": 3,
      "velocity": 127
    },
    {
      "start_ms": 97286,
      "duration_ms": 34,
      "rest": true
    },
    {
      "start_ms": 97320,
      "duration_ms": 181,
      "gate_ms": 163,
      "note": 65,
      "frequency_hz": 349,
      "loudness_level": 3,
      "velocity": 127
    },
    {
      "start_ms": 97501,
      "duration_ms": 435,
      "gate_ms": 391,
      "note": 65,
      "frequency_hz": 349,
      "loudness_level": 3,
      "velocity": 127
    },
    {
      "start_ms": 97936,
      "duration_ms": 41,
      "rest": true
    },
    {
      "start_ms": 97977,
      "duration_ms": 174,
      "gate_ms": 157,
      "note": 64,
      "frequency_hz": 330,
      "loudness_level": 3,
      "velocity": 127
    },
    {
      "start_ms": 98151,
      "duration_ms": 34,
      "rest": true
    },
    {
      "start_ms": 98185,
      "duration_ms": 186,
      "gate_ms": 167,
      "note": 62,
      "frequency_hz": 294,
      "loudness_level": 3,
      "velocity": 127
    },
    {
      "start_ms": 98371,
      "duration_ms": 32,
      "rest": true
    },
    {
      "start_ms": 98403,
      "duration_ms": 1492,
      "gate_ms": 1343,
      "note": 60,
      "frequency_hz": 262,
      "loudness_level": 3,
      "velocity": 127
    },
    {
      "start_ms": 99895,
      "duration_ms": 2000,
      "rest": true
    },
    {
      "start_ms": 101895,
      "duration_ms": 2572,
      "gate_ms": 2315,
      "note": 60,
      "frequency_hz": 262,
      "loudness_level": 3,
      "velocity": 127
    },
    {
      "start_ms": 104467,
      "duration_ms": 34,
      "rest": true
    },
    {
      "start_ms": 104501,
      "duration_ms": 401,
      "gate_ms": 361,
      "note": 59,
      "frequency_hz": 247,
      "loudness_level": 3,
      "velocity": 127
    },
    {
      "start_ms": 104902,
      "duration_ms": 36,
      "rest": true
    },
    {
      "start_ms": 104938,
      "duration_ms": 360,
      "gate_ms": 324,
      "note": 57,
      "frequency_hz": 220,
      "loudness_level": 3,
      "velocity": 127
    },
    {
      "start_ms": 105298,
      "duration_ms": 111,
      "rest": true
    },
    {
      "start_ms": 105409,
      "duration_ms": 68,
      "gate_ms": 61,
      "note": 55,
      "frequency_hz": 196,
      "loudness_level": 3,
      "velocity": 127
    },
    {
      "start_ms": 105477,
      "duration_ms": 145,
      "rest": true
    },
    {
      "start_ms": 105622,
      "duration_ms": 72,
      "gate_ms": 65,
      "note": 55,
      "frequency_hz": 196,
      "loudness_level": 3,
      "velocity": 127
    },
    {
      "start_ms": 105694,
      "duration_ms": 111,
      "rest": true
    },
    {
      "start_ms": 105805,
      "duration_ms": 179,
      "gate_ms": 161,
      "note": 55,
      "frequency_hz": 196,
      "loudness_level": 3,
      "velocity": 127
    },
    {
      "start_ms": 105984,
      "duration_ms": 183,
      "gate_ms": 165,
      "note": 57,
      "frequency_hz": 220,
      "loudness_level": 3,
      "velocity": 127
    },
    {
      "start_ms": 106167,
      "duration_ms": 38,
      "rest": true
    },
    {
      "start_ms": 106205,
      "duration_ms": 288,
      "gate_ms": 259,
      "note": 55,
      "frequency_hz": 196,
      "loudness_level": 3,
      "velocity": 127
    },
    {
      "start_ms": 106493,
      "duration_ms": 186,
      "rest": true
    },
    {
      "start_ms": 106679,
      "duration_ms": 1660,
      "gate_ms": 1494,
      "note": 50,
      "frequency_hz": 147,
      "loudness_level": 3,
      "velocity": 127
    },
    {
      "start_ms": 108339,
      "duration_ms": 510,
      "rest": true
    },
    {
      "start_ms": 108849,
      "duration_ms": 29,
      "gate_ms": 30,
      "note": 60,
      "frequency_hz": 262,
      "loudness_level": 3,
      "velocity": 127
    },
    {
      "start_ms": 108878,
      "duration_ms": 2000,
      "rest": true
    },
    {
      "start_ms": 110878,
      "duration_ms": 217,
      "gate_ms": 196,
      "note": 60,
      "frequency_hz": 262,
      "loudness_level": 3,
      "velocity": 127
    },
    {
      "start_ms": 111095,
      "duration_ms": 654,
      "gate_ms": 589,
      "note": 59,
      "frequency_hz": 247,
      "loudness_level": 3,
      "velocity": 127
    },
    {
      "start_ms": 111749,
      "duration_ms": 32,
      "rest": true
    },
    {
      "start_ms": 111781,
      "duration_ms": 186,
      "gate_ms": 167,
      "note": 57,
      "frequency_hz": 220,
      "loudness_level": 3,
      "velocity": 127
    },
    {
      "start_ms": 111967,
      "duration_ms": 2751,
      "gate_ms": 2476,
      "note": 55,
      "frequency_hz": 196,
      "loudness_level": 3,
      "velocity": 127
    },
    {
      "start_ms": 114718,
      "duration_ms": 978,
      "rest": true
    },
    {
      "start_ms": 115696,
      "duration_ms": 115,
      "gate_ms": 104,
      "note": 58,
      "frequency_hz": 233,
      "loudness_level": 3,
      "velocity": 127
    },
    {
      "start_ms": 115811,
      "duration_ms": 104,
      "rest": true
    },
    {
      "start_ms": 115915,
      "duration_ms": 251,
      "gate_ms": 226,
      "note": 58,
      "frequency_hz": 233,
      "loudness_level": 3,
      "velocity": 127
    },
    {
      "start_ms": 116166,
      "duration_ms": 145,
      "rest": true
    },
    {
      "start_ms": 116311,
      "duration_ms": 580,
      "gate_ms": 522,
      "note": 58,
      "frequency_hz": 233,
      "loudness_level": 3,
      "velocity": 127
    },
    {
      "start_ms": 116891,
      "duration_ms": 36,
      "rest": true
    },
    {
      "start_ms": 116927,
      "duration_ms": 435,
      "gate_ms": 391,
      "note": 60,
      "frequency_hz": 262,
      "loudness_level": 3,
      "velocity": 127
    },
    {
      "start_ms": 117362,
      "duration_ms": 41,
      "rest": true
    },
    {
      "start_ms": 117403,
      "duration_ms": 688,
      "gate_ms": 620,
      "note": 57,
      "frequency_hz": 220,
      "loudness_level": 3,
      "velocity": 127
    },
    {
      "start_ms": 118091,
      "duration_ms": 177,
      "rest": true
    },
    {
      "start_ms": 118268,
      "duration_ms": 290,
      "gate_ms": 261,
      "note": 57,
      "frequency_hz": 220,
      "loudness_level": 3,
      "velocity": 127
    },
    {
      "start_ms": 118558,
      "duration_ms": 147,
      "rest": true
    },
    {
      "start_ms": 118705,
      "duration_ms": 249,
      "gate_ms": 224,
      "note": 57,
      "frequency_hz": 220,
      "loudness_level": 3,
      "velocity": 127
    },
    {
      "start_ms": 118954,
      "duration_ms": 183,
      "rest": true
    },
    {
      "start_ms": 119137,
      "duration_ms": 145,
      "gate_ms": 130,
      "note": 55,
      "frequency_hz": 196,
      "loudness_level": 3,
      "velocity": 127
    },
    {
      "start_ms": 119282,
      "duration_ms": 109,
      "rest": true
    },
    {
      "start_ms": 119391,
      "duration_ms": 399,
      "gate_ms": 359,
      "note": 55,
      "frequency_hz": 196,
      "loudness_level": 3,
      "velocity": 127
    },
    {
      "start_ms": 119790,
      "duration_ms": 618,
      "gate_ms": 556,
      "note": 57,
      "frequency_hz": 220,
      "loudness_level": 3,
      "velocity": 127
    },
    {
      "start_ms": 120408,
      "duration_ms": 34,
      "rest": true
    },
    {
      "start_ms": 120442,
      "duration_ms": 224,
      "gate_ms": 202,
      "note": 55,
      "frequency_hz": 196,
      "loudness_level": 3,
      "velocity": 127
    },
    {
      "start_ms": 120666,
      "duration_ms": 136,
      "gate_ms": 122,
      "note": 53,
      "frequency_hz": 175,
      "loudness_level": 3,
      "velocity": 127
    },
    {
      "start_ms": 120802,
      "duration_ms": 70,
      "rest": true
    },
    {
      "start_ms": 120872,
      "duration_ms": 2625,
      "gate_ms": 2362,
      "note": 53,
      "frequency_hz": 175,
      "loudness_level": 3,
      "velocity": 127
    }
  ]
}