{
  "source_midi": "Kenny_Rogers_-_The_Gambler.mid",
  "ticks_per_beat": 240,
  "tempo_bpm": 90,
  "tempo_changes": [
    {
      "tick": 0,
      "tempo_us": 666666,
      "bpm": 90
    }
  ],
  "selected_track_index": 5,
  "selected_track_name": "MELODY",
  "track_1based": 6,
  "max_rest_ms": 3000,
  "gate_ratio": 0.9,
  "loudness_levels": 3,
  "note_range": {
    "min_note": 48,
    "max_note": 96
  },
  "events": [
    {
      "start_ms": 0,
      "duration_ms": 86,
      "gate_ms": 77,
      "note": 63,
      "frequency_hz": 311,
      "loudness_level": 3,
      "velocity": 92
    },
    {
      "start_ms": 86,
      "duration_ms": 81,
      "rest": true
    },
    {
      "start_ms": 167,
      "duration_ms": 83,
      "gate_ms": 75,
      "note": 63,
      "frequency_hz": 311,
      "loudness_level": 3,
      "velocity": 105
    },
    {
      "start_ms": 250,
      "duration_ms": 83,
      "rest": true
    },
    {
      "start_ms": 333,
      "duration_ms": 542,
      "gate_ms": 487,
      "note": 63,
      "frequency_hz": 311,
      "loudness_level": 3,
      "velocity": 119
    },
    {
      "start_ms": 875,
      "duration_ms": 125,
      "rest": true
    },
    {
      "start_ms": 1000,
      "duration_ms": 203,
      "gate_ms": 182,
      "note": 63,
      "frequency_hz": 311,
      "loudness_level": 3,
      "velocity": 110
    },
    {
      "start_ms": 1203,
      "duration_ms": 131,
      "rest": true
    },
    {
      "start_ms": 1334,
      "duration_ms": 67,
      "gate_ms": 60,
      "note": 63,
      "frequency_hz": 311,
      "loudness_level": 3,
      "velocity": 97
    },
    {
      "start_ms": 1401,
      "duration_ms": 100,
      "rest": true
    },
    {
      "start_ms": 1501,
      "duration_ms": 292,
      "gate_ms": 262,
      "note": 63,
      "frequency_hz": 311,
      "loudness_level": 3,
      "velocity": 114
    },
    {
      "start_ms": 1793,
      "duration_ms": 208,
      "rest": true
    },
    {
      "start_ms": 2001,
      "duration_ms": 553,
      "gate_ms": 497,
      "note": 63,
      "frequency_hz": 311,
      "loudness_level": 3,
      "velocity": 114
    },
    {
      "start_ms": 2554,
      "duration_ms": 114,
      "rest": true
    },
    {
      "start_ms": 2668,
      "duration_ms": 214,
      "gate_ms": 192,
      "note": 63,
      "frequency_hz": 311,
      "loudness_level": 3,
      "velocity": 119
    },
    {
      "start_ms": 2882,
      "duration_ms": 119,
      "rest": true
    },
    {
      "start_ms": 3001,
      "duration_ms": 150,
      "gate_ms": 135,
      "note": 68,
      "frequency_hz": 415,
      "loudness_level": 3,
      "velocity": 110
    },
    {
      "start_ms": 3151,
      "duration_ms": 183,
      "rest": true
    },
    {
      "start_ms": 3334,
      "duration_ms": 253,
      "gate_ms": 227,
      "note": 68,
      "frequency_hz": 415,
      "loudness_level": 3,
      "velocity": 114
    },
    {
      "start_ms": 3587,
      "duration_ms": 81,
      "rest": true
    },
    {
      "start_ms": 3668,
      "duration_ms": 128,
      "gate_ms": 115,
      "note": 70,
      "frequency_hz": 466,
      "loudness_level": 3,
      "velocity": 114
    },
    {
      "start_ms": 3796,
      "duration_ms": 206,
      "rest": true
    },
    {
      "start_ms": 4002,
      "duration_ms": 83,
      "gate_ms": 75,
      "note": 72,
      "frequency_hz": 523,
      "loudness_level": 3,
      "velocity": 110
    },
    {
      "start_ms": 4085,
      "duration_ms": 83,
      "rest": true
    },
    {
      "start_ms": 4168,
      "duration_ms": 481,
      "gate_ms": 432,
      "note": 70,
      "frequency_hz": 466,
      "loudness_level": 3,
      "velocity": 105
    },
    {
      "start_ms": 4649,
      "duration_ms": 19,
      "rest": true
    },
    {
      "start_ms": 4668,
      "duration_ms": 878,
      "gate_ms": 790,
      "note": 67,
      "frequency_hz": 392,
      "loudness_level": 3,
      "velocity": 105
    },
    {
      "start_ms": 5546,
      "duration_ms": 456,
      "rest": true
    },
    {
      "start_ms": 6002,
      "duration_ms": 181,
      "gate_ms": 162,
      "note": 70,
      "frequency_hz": 466,
      "loudness_level": 3,
      "velocity": 119
    },
    {
      "start_ms": 6183,
      "duration_ms": 153,
      "rest": true
    },
    {
      "start_ms": 6336,
      "duration_ms": 442,
      "gate_ms": 397,
      "note": 72,
      "frequency_hz": 523,
      "loudness_level": 3,
      "velocity": 119
    },
    {
      "start_ms": 6778,
      "duration_ms": 58,
      "rest": true
    },
    {
      "start_ms": 6836,
      "duration_ms": 419,
      "gate_ms": 377,
      "note": 70,
      "frequency_hz": 466,
      "loudness_level": 3,
      "velocity": 119
    },
    {
      "start_ms": 7255,
      "duration_ms": 81,
      "rest": true
    },
    {
      "start_ms": 7336,
      "duration_ms": 511,
      "gate_ms": 460,
      "note": 67,
      "frequency_hz": 392,
      "loudness_level": 3,
      "velocity": 114
    },
    {
      "start_ms": 7847,
      "duration_ms": 156,
      "rest": true
    },
    {
      "start_ms": 8003,
      "duration_ms": 283,
      "gate_ms": 255,
      "note": 67,
      "frequency_hz": 392,
      "loudness_level": 3,
      "velocity": 119
    },
    {
      "start_ms": 8286,
      "duration_ms": 50,
      "rest": true
    },
    {
      "start_ms": 8336,
      "duration_ms": 144,
      "gate_ms": 130,
      "note": 63,
      "frequency_hz": 311,
      "loudness_level": 3,
      "velocity": 114
    },
    {
      "start_ms": 8480,
      "duration_ms": 189,
      "rest": true
    },
    {
      "start_ms": 8669,
      "duration_ms": 164,
      "gate_ms": 147,
      "note": 63,
      "frequency_hz": 311,
      "loudness_level": 3,
      "velocity": 110
    },
    {
      "start_ms": 8833,
      "duration_ms": 169,
      "rest": true
    },
    {
      "start_ms": 9002,
      "duration_ms": 206,
      "gate_ms": 185,
      "note": 63,
      "frequency_hz": 311,
      "loudness_level": 3,
      "velocity": 105
    },
    {
      "start_ms": 9208,
      "duration_ms": 128,
      "rest": true
    },
    {
      "start_ms": 9336,
      "duration_ms": 133,
      "gate_ms": 120,
      "note": 63,
      "frequency_hz": 311,
      "loudness_level": 3,
      "velocity": 110
    },
    {
      "start_ms": 9469,
      "duration_ms": 33,
      "rest": true
    },
    {
      "start_ms": 9502,
      "duration_ms": 1036,
      "gate_ms": 932,
      "note": 65,
      "frequency_hz": 349,
      "loudness_level": 3,
      "velocity": 105
    },
    {
      "start_ms": 10538,
      "duration_ms": 131,
      "rest": true
    },
    {
      "start_ms": 10669,
      "duration_ms": 114,
      "gate_ms": 102,
      "note": 63,
      "frequency_hz": 311,
      "loudness_level": 3,
      "velocity": 119
    },
    {
      "start_ms": 10783,
      "duration_ms": 219,
      "rest": true
    },
    {
      "start_ms": 11002,
      "duration_ms": 550,
      "gate_ms": 495,
      "note": 63,
      "frequency_hz": 311,
      "loudness_level": 3,
      "velocity": 105
    },
    {
      "start_ms": 11552,
      "duration_ms": 117,
      "rest": true
    },
    {
      "start_ms": 11669,
      "duration_ms": 367,
      "gate_ms": 330,
      "note": 63,
      "frequency_hz": 311,
      "loudness_level": 3,
      "velocity": 105
    },
    {
      "start_ms": 12036,
      "duration_ms": 133,
      "rest": true
    },
    {
      "start_ms": 12169,
      "duration_ms": 364,
      "gate_ms": 327,
      "note": 63,
      "frequency_hz": 311,
      "loudness_level": 3,
      "velocity": 105
    },
    {
      "start_ms": 12533,
      "duration_ms": 136,
      "rest": true
    },
    {
      "start_ms": 12669,
      "duration_ms": 497,
      "gate_ms": 447,
      "note": 63,
      "frequency_hz": 311,
      "loudness_level": 3,
      "velocity": 101
    },
    {
      "start_ms": 13166,
      "duration_ms": 169,
      "rest": true
    },
    {
      "start_ms": 13335,
      "duration_ms": 303,
      "gate_ms": 272,
      "note": 63,
      "frequency_hz": 311,
      "loudness_level": 3,
      "velocity": 105
    },
    {
      "start_ms": 13638,
      "duration_ms": 31,
      "rest": true
    },
    {
      "start_ms": 13669,
      "duration_ms": 142,
      "gate_ms": 127,
      "note": 68,
      "frequency_hz": 415,
      "loudness_level": 3,
      "velocity": 105
    },
    {
      "start_ms": 13811,
      "duration_ms": 192,
      "rest": true
    },
    {
      "start_ms": 14003,
      "duration_ms": 272,
      "gate_ms": 245,
      "note": 68,
      "frequency_hz": 415,
      "loudness_level": 3,
      "velocity": 110
    },
    {
      "start_ms": 14275,
      "duration_ms": 61,
      "rest": true
    },
    {
      "start_ms": 14336,
      "duration_ms": 253,
      "gate_ms": 227,
      "note": 70,
      "frequency_hz": 466,
      "loudness_level": 3,
      "velocity": 105
    },
    {
      "start_ms": 14589,
      "duration_ms": 81,
      "rest": true
    },
    {
      "start_ms": 14670,
      "duration_ms": 103,
      "gate_ms": 92,
      "note": 72,
      "frequency_hz": 523,
      "loudness_level": 3,
      "velocity": 105
    },
    {
      "start_ms": 14773,
      "duration_ms": 64,
      "rest": true
    },
    {
      "start_ms": 14837,
      "duration_ms": 458,
      "gate_ms": 412,
      "note": 70,
      "frequency_hz": 466,
      "loudness_level": 3,
      "velocity": 105
    },
    {
      "start_ms": 15295,
      "duration_ms": 42,
      "rest": true
    },
    {
      "start_ms": 15337,
      "duration_ms": 969,
      "gate_ms": 872,
      "note": 67,
      "frequency_hz": 392,
      "loudness_level": 3,
      "velocity": 97
    },
    {
      "start_ms": 16306,
      "duration_ms": 364,
      "rest": true
    },
    {
      "start_ms": 16670,
      "duration_ms": 325,
      "gate_ms": 292,
      "note": 68,
      "frequency_hz": 415,
      "loudness_level": 3,
      "velocity": 105
    },
    {
      "start_ms": 16995,
      "duration_ms": 8,
      "rest": true
    },
    {
      "start_ms": 17003,
      "duration_ms": 297,
      "gate_ms": 267,
      "note": 70,
      "frequency_hz": 466,
      "loudness_level": 3,
      "velocity": 105
    },
    {
      "start_ms": 17300,
      "duration_ms": 36,
      "rest": true
    },
    {
      "start_ms": 17336,
      "duration_ms": 156,
      "gate_ms": 140,
      "note": 72,
      "frequency_hz": 523,
      "loudness_level": 3,
      "velocity": 101
    },
    {
      "start_ms": 17492,
      "duration_ms": 11,
      "rest": true
    },
    {
      "start_ms": 17503,
      "duration_ms": 467,
      "gate_ms": 420,
      "note": 70,
      "frequency_hz": 466,
      "loudness_level": 3,
      "velocity": 105
    },
    {
      "start_ms": 17970,
      "duration_ms": 33,
      "rest": true
    },
    {
      "start_ms": 18003,
      "duration_ms": 569,
      "gate_ms": 512,
      "note": 67,
      "frequency_hz": 392,
      "loudness_level": 3,
      "velocity": 101
    },
    {
      "start_ms": 18572,
      "duration_ms": 97,
      "rest": true
    },
    {
      "start_ms": 18669,
      "duration_ms": 331,
      "gate_ms": 297,
      "note": 67,
      "frequency_hz": 392,
      "loudness_level": 3,
      "velocity": 110
    },
    {
      "start_ms": 19000,
      "duration_ms": 3,
      "rest": true
    },
    {
      "start_ms": 19003,
      "duration_ms": 108,
      "gate_ms": 97,
      "note": 65,
      "frequency_hz": 349,
      "loudness_level": 3,
      "velocity": 110
    },
    {
      "start_ms": 19111,
      "duration_ms": 225,
      "rest": true
    },
    {
      "start_ms": 19336,
      "duration_ms": 275,
      "gate_ms": 247,
      "note": 65,
      "frequency_hz": 349,
      "loudness_level": 3,
      "velocity": 105
    },
    {
      "start_ms": 19611,
      "duration_ms": 58,
      "rest": true
    },
    {
      "start_ms": 19669,
      "duration_ms": 275,
      "gate_ms": 247,
      "note": 67,
      "frequency_hz": 392,
      "loudness_level": 3,
      "velocity": 110
    },
    {
      "start_ms": 19944,
      "duration_ms": 58,
      "rest": true
    },
    {
      "start_ms": 20002,
      "duration_ms": 128,
      "gate_ms": 115,
      "note": 65,
      "frequency_hz": 349,
      "loudness_level": 3,
      "velocity": 105
    },
    {
      "start_ms": 20130,
      "duration_ms": 39,
      "rest": true
    },
    {
      "start_ms": 20169,
      "duration_ms": 886,
      "gate_ms": 797,
      "note": 63,
      "frequency_hz": 311,
      "loudness_level": 3,
      "velocity": 114
    },
    {
      "start_ms": 21055,
      "duration_ms": 614,
      "rest": true
    },
    {
      "start_ms": 21669,
      "duration_ms": 542,
      "gate_ms": 487,
      "note": 63,
      "frequency_hz": 311,
      "loudness_level": 3,
      "velocity": 119
    },
    {
      "start_ms": 22211,
      "duration_ms": 125,
      "rest": true
    },
    {
      "start_ms": 22336,
      "duration_ms": 203,
      "gate_ms": 182,
      "note": 63,
      "frequency_hz": 311,
      "loudness_level": 3,
      "velocity": 110
    },
    {
      "start_ms": 22539,
      "duration_ms": 131,
      "rest": true
    },
    {
      "start_ms": 22670,
      "duration_ms": 67,
      "gate_ms": 60,
      "note": 63,
      "frequency_hz": 311,
      "loudness_level": 3,
      "velocity": 97
    },
    {
      "start_ms": 22737,
      "duration_ms": 100,
      "rest": true
    },
    {
      "start_ms": 22837,
      "duration_ms": 292,
      "gate_ms": 262,
      "note": 63,
      "frequency_hz": 311,
      "loudness_level": 3,
      "velocity": 114
    },
    {
      "start_ms": 23129,
      "duration_ms": 208,
      "rest": true
    },
    {
      "start_ms": 23337,
      "duration_ms": 553,
      "gate_ms": 497,
      "note": 63,
      "frequency_hz": 311,
      "loudness_level": 3,
      "velocity": 114
    },
    {
      "start_ms": 23890,
      "duration_ms": 114,
      "rest": true
    },
    {
      "start_ms": 24004,
      "duration_ms": 214,
      "gate_ms": 192,
      "note": 63,
      "frequency_hz": 311,
      "loudness_level": 3,
      "velocity": 119
    },
    {
      "start_ms": 24218,
      "duration_ms": 119,
      "rest": true
    },
    {
      "start_ms": 24337,
      "duration_ms": 150,
      "gate_ms": 135,
      "note": 68,
      "frequency_hz": 415,
      "loudness_level": 3,
      "velocity": 110
    },
    {
      "start_ms": 24487,
      "duration_ms": 183,
      "rest": true
    },
    {
      "start_ms": 24670,
      "duration_ms": 253,
      "gate_ms": 227,
      "note": 68,
      "frequency_hz": 415,
      "loudness_level": 3,
      "velocity": 114
    },
    {
      "start_ms": 24923,
      "duration_ms": 81,
      "rest": true
    },
    {
      "start_ms": 25004,
      "duration_ms": 128,
      "gate_ms": 115,
      "note": 70,
      "frequency_hz": 466,
      "loudness_level": 3,
      "velocity": 114
    },
    {
      "start_ms": 25132,
      "duration_ms": 206,
      "rest": true
    },
    {
      "start_ms": 25338,
      "duration_ms": 83,
      "gate_ms": 75,
      "note": 72,
      "frequency_hz": 523,
      "loudness_level": 3,
      "velocity": 110
    },
    {
      "start_ms": 25421,
      "duration_ms": 83,
      "rest": true
    },
    {
      "start_ms": 25504,
      "duration_ms": 481,
      "gate_ms": 432,
      "note": 70,
      "frequency_hz": 466,
      "loudness_level": 3,
      "velocity": 105
    },
    {
      "start_ms": 25985,
      "duration_ms": 19,
      "rest": true
    },
    {
      "start_ms": 26004,
      "duration_ms": 878,
      "gate_ms": 790,
      "note": 67,
      "frequency_hz": 392,
      "loudness_level": 3,
      "velocity": 105
    },
    {
      "start_ms": 26882,
      "duration_ms": 456,
      "rest": true
    },
    {
      "start_ms": 27338,
      "duration_ms": 181,
      "gate_ms": 162,
      "note": 70,
      "frequency_hz": 466,
      "loudness_level": 3,
      "velocity": 119
    },
    {
      "start_ms": 27519,
      "duration_ms": 153,
      "rest": true
    },
    {
      "start_ms": 27672,
      "duration_ms": 442,
      "gate_ms": 397,
      "note": 72,
      "frequency_hz": 523,
      "loudness_level": 3,
      "velocity": 119
    },
    {
      "start_ms": 28114,
      "duration_ms": 58,
      "rest": true
    },
    {
      "start_ms": 28172,
      "duration_ms": 419,
      "gate_ms": 377,
      "note": 70,
      "frequency_hz": 466,
      "loudness_level": 3,
      "velocity": 119
    },
    {
      "start_ms": 28591,
      "duration_ms": 81,
      "rest": true
    },
    {
      "start_ms": 28672,
      "duration_ms": 511,
      "gate_ms": 460,
      "note": 67,
      "frequency_hz": 392,
      "loudness_level": 3,
      "velocity": 114
    },
    {
      "start_ms": 29183,
      "duration_ms": 156,
      "rest": true
    },
    {
      "start_ms": 29339,
      "duration_ms": 283,
      "gate_ms": 255,
      "note": 67,
      "frequency_hz": 392,
      "loudness_level": 3,
      "velocity": 119
    },
    {
      "start_ms": 29622,
      "duration_ms": 50,
      "rest": true
    },
    {
      "start_ms": 29672,
      "duration_ms": 144,
      "gate_ms": 130,
      "note": 63,
      "frequency_hz": 311,
      "loudness_level": 3,
      "velocity": 114
    },
    {
      "start_ms": 29816,
      "duration_ms": 189,
      "rest": true
    },
    {
      "start_ms": 30005,
      "duration_ms": 164,
      "gate_ms": 147,
      "note": 63,
      "frequency_hz": 311,
      "loudness_level": 3,
      "velocity": 110
    },
    {
      "start_ms": 30169,
      "duration_ms": 169,
      "rest": true
    },
    {
      "start_ms": 30338,
      "duration_ms": 206,
      "gate_ms": 185,
      "note": 63,
      "frequency_hz": 311,
      "loudness_level": 3,
      "velocity": 105
    },
    {
      "start_ms": 30544,
      "duration_ms": 128,
      "rest": true
    },
    {
      "start_ms": 30672,
      "duration_ms": 133,
      "gate_ms": 120,
      "note": 63,
      "frequency_hz": 311,
      "loudness_level": 3,
      "velocity": 110
    },
    {
      "start_ms": 30805,
      "duration_ms": 33,
      "rest": true
    },
    {
      "start_ms": 30838,
      "duration_ms": 1036,
      "gate_ms": 932,
      "note": 65,
      "frequency_hz": 349,
      "loudness_level": 3,
      "velocity": 105
    },
    {
      "start_ms": 31874,
      "duration_ms": 131,
      "rest": true
    },
    {
      "start_ms": 32005,
      "duration_ms": 114,
      "gate_ms": 102,
      "note": 63,
      "frequency_hz": 311,
      "loudness_level": 3,
      "velocity": 119
    },
    {
      "start_ms": 32119,
      "duration_ms": 219,
      "rest": true
    },
    {
      "start_ms": 32338,
      "duration_ms": 550,
      "gate_ms": 495,
      "note": 63,
      "frequency_hz": 311,
      "loudness_level": 3,
      "velocity": 105
    },
    {
      "start_ms": 32888,
      "duration_ms": 117,
      "rest": true
    },
    {
      "start_ms": 33005,
      "duration_ms": 367,
      "gate_ms": 330,
      "note": 63,
      "frequency_hz": 311,
      "loudness_level": 3,
      "velocity": 105
    },
    {
      "start_ms": 33372,
      "duration_ms": 133,
      "rest": true
    },
    {
      "start_ms": 33505,
      "duration_ms": 364,
      "gate_ms": 327,
      "note": 63,
      "frequency_hz": 311,
      "loudness_level": 3,
      "velocity": 105
    },
    {
      "start_ms": 33869,
      "duration_ms": 136,
      "rest": true
    },
    {
      "start_ms": 34005,
      "duration_ms": 497,
      "gate_ms": 447,
      "note": 63,
      "frequency_hz": 311,
      "loudness_level": 3,
      "velocity": 101
    },
    {
      "start_ms": 34502,
      "duration_ms": 169,
      "rest": true
    },
    {
      "start_ms": 34671,
      "duration_ms": 303,
      "gate_ms": 272,
      "note": 63,
      "frequency_hz": 311,
      "loudness_level": 3,
      "velocity": 105
    },
    {
      "start_ms": 34974,
      "duration_ms": 31,
      "rest": true
    },
    {
      "start_ms": 35005,
      "duration_ms": 142,
      "gate_ms": 127,
      "note": 68,
      "frequency_hz": 415,
      "loudness_level": 3,
      "velocity": 105
    },
    {
      "start_ms": 35147,
      "duration_ms": 192,
      "rest": true
    },
    {
      "start_ms": 35339,
      "duration_ms": 272,
      "gate_ms": 245,
      "note": 68,
      "frequency_hz": 415,
      "loudness_level": 3,
      "velocity": 110
    },
    {
      "start_ms": 35611,
      "duration_ms": 61,
      "rest": true
    },
    {
      "start_ms": 35672,
      "duration_ms": 253,
      "gate_ms": 227,
      "note": 70,
      "frequency_hz": 466,
      "loudness_level": 3,
      "velocity": 105
    },
    {
      "start_ms": 35925,
      "duration_ms": 81,
      "rest": true
    },
    {
      "start_ms": 36006,
      "duration_ms": 103,
      "gate_ms": 92,
      "note": 72,
      "frequency_hz": 523,
      "loudness_level": 3,
      "velocity": 105
    },
    {
      "start_ms": 36109,
      "duration_ms": 64,
      "rest": true
    },
    {
      "start_ms": 36173,
      "duration_ms": 458,
      "gate_ms": 412,
      "note": 70,
      "frequency_hz": 466,
      "loudness_level": 3,
      "velocity": 105
    },
    {
      "start_ms": 36631,
      "duration_ms": 42,
      "rest": true
    },
    {
      "start_ms": 36673,
      "duration_ms": 969,
      "gate_ms": 872,
      "note": 67,
      "frequency_hz": 392,
      "loudness_level": 3,
      "velocity": 97
    },
    {
      "start_ms": 37642,
      "duration_ms": 364,
      "rest": true
    },
    {
      "start_ms": 38006,
      "duration_ms": 325,
      "gate_ms": 292,
      "note": 68,
      "frequency_hz": 415,
      "loudness_level": 3,
      "velocity": 105
    },
    {
      "start_ms": 38331,
      "duration_ms": 8,
      "rest": true
    },
    {
      "start_ms": 38339,
      "duration_ms": 297,
      "gate_ms": 267,
      "note": 70,
      "frequency_hz": 466,
      "loudness_level": 3,
      "velocity": 105
    },
    {
      "start_ms": 38636,
      "duration_ms": 36,
      "rest": true
    },
    {
      "start_ms": 38672,
      "duration_ms": 156,
      "gate_ms": 140,
      "note": 72,
      "frequency_hz": 523,
      "loudness_level": 3,
      "velocity": 101
    },
    {
      "start_ms": 38828,
      "duration_ms": 11,
      "rest": true
    },
    {
      "start_ms": 38839,
      "duration_ms": 467,
      "gate_ms": 420,
      "note": 70,
      "frequency_hz": 466,
      "loudness_level": 3,
      "velocity": 105
    },
    {
      "start_ms": 39306,
      "duration_ms": 33,
      "rest": true
    },
    {
      "start_ms": 39339,
      "duration_ms": 569,
      "gate_ms": 512,
      "note": 67,
      "frequency_hz": 392,
      "loudness_level": 3,
      "velocity": 101
    },
    {
      "start_ms": 39908,
      "duration_ms": 97,
      "rest": true
    },
    {
      "start_ms": 40005,
      "duration_ms": 331,
      "gate_ms": 297,
      "note": 67,
      "frequency_hz": 392,
      "loudness_level": 3,
      "velocity": 110
    },
    {
      "start_ms": 40336,
      "duration_ms": 3,
      "rest": true
    },
    {
      "start_ms": 40339,
      "duration_ms": 108,
      "gate_ms": 97,
      "note": 65,
      "frequency_hz": 349,
      "loudness_level": 3,
      "velocity": 110
    },
    {
      "start_ms": 40447,
      "duration_ms": 225,
      "rest": true
    },
    {
      "start_ms": 40672,
      "duration_ms": 275,
      "gate_ms": 247,
      "note": 65,
      "frequency_hz": 349,
      "loudness_level": 3,
      "velocity": 105
    },
    {
      "start_ms": 40947,
      "duration_ms": 58,
      "rest": true
    },
    {
      "start_ms": 41005,
      "duration_ms": 275,
      "gate_ms": 247,
      "note": 67,
      "frequency_hz": 392,
      "loudness_level": 3,
      "velocity": 110
    },
    {
      "start_ms": 41280,
      "duration_ms": 58,
      "rest": true
    },
    {
      "start_ms": 41338,
      "duration_ms": 128,
      "gate_ms": 115,
      "note": 65,
      "frequency_hz": 349,
      "loudness_level": 3,
      "velocity": 105
    },
    {
      "start_ms": 41466,
      "duration_ms": 39,
      "rest": true
    },
    {
      "start_ms": 41505,
      "duration_ms": 886,
      "gate_ms": 797,
      "note": 63,
      "frequency_hz": 311,
      "loudness_level": 3,
      "velocity": 114
    },
    {
      "start_ms": 42391,
      "duration_ms": 1614,
      "rest": true
    },
    {
      "start_ms": 44005,
      "duration_ms": 211,
      "gate_ms": 190,
      "note": 63,
      "frequency_hz": 311,
      "loudness_level": 3,
      "velocity": 105
    },
    {
      "start_ms": 44216,
      "duration_ms": 122,
      "rest": true
    },
    {
      "start_ms": 44338,
      "duration_ms": 542,
      "gate_ms": 487,
      "note": 63,
      "frequency_hz": 311,
      "loudness_level": 3,
      "velocity": 119
    },
    {
      "start_ms": 44880,
      "duration_ms": 125,
      "rest": true
    },
    {
      "start_ms": 45005,
      "duration_ms": 203,
      "gate_ms": 182,
      "note": 63,
      "frequency_hz": 311,
      "loudness_level": 3,
      "velocity": 110
    },
    {
      "start_ms": 45208,
      "duration_ms": 131,
      "rest": true
    },
    {
      "start_ms": 45339,
      "duration_ms": 67,
      "gate_ms": 60,
      "note": 63,
      "frequency_hz": 311,
      "loudness_level": 3,
      "velocity": 97
    },
    {
      "start_ms": 45406,
      "duration_ms": 100,
      "rest": true
    },
    {
      "start_ms": 45506,
      "duration_ms": 292,
      "gate_ms": 262,
      "note": 63,
      "frequency_hz": 311,
      "loudness_level": 3,
      "velocity": 114
    },
    {
      "start_ms": 45798,
      "duration_ms": 208,
      "rest": true
    },
    {
      "start_ms": 46006,
      "duration_ms": 553,
      "gate_ms": 497,
      "note": 63,
      "frequency_hz": 311,
      "loudness_level": 3,
      "velocity": 114
    },
    {
      "start_ms": 46559,
      "duration_ms": 114,
      "rest": true
    },
    {
      "start_ms": 46673,
      "duration_ms": 214,
      "gate_ms": 192,
      "note": 63,
      "frequency_hz": 311,
      "loudness_level": 3,
      "velocity": 119
    },
    {
      "start_ms": 46887,
      "duration_ms": 119,
      "rest": true
    },
    {
      "start_ms": 47006,
      "duration_ms": 150,
      "gate_ms": 135,
      "note": 68,
      "frequency_hz": 415,
      "loudness_level": 3,
      "velocity": 110
    },
    {
      "start_ms": 47156,
      "duration_ms": 183,
      "rest": true
    },
    {
      "start_ms": 47339,
      "duration_ms": 253,
      "gate_ms": 227,
      "note": 68,
      "frequency_hz": 415,
      "loudness_level": 3,
      "velocity": 114
    },
    {
      "start_ms": 47592,
      "duration_ms": 81,
      "rest": true
    },
    {
      "start_ms": 47673,
      "duration_ms": 128,
      "gate_ms": 115,
      "note": 70,
      "frequency_hz": 466,
      "loudness_level": 3,
      "velocity": 114
    },
    {
      "start_ms": 47801,
      "duration_ms": 206,
      "rest": true
    },
    {
      "start_ms": 48007,
      "duration_ms": 83,
      "gate_ms": 75,
      "note": 72,
      "frequency_hz": 523,
      "loudness_level": 3,
      "velocity": 110
    },
    {
      "start_ms": 48090,
      "duration_ms": 83,
      "rest": true
    },
    {
      "start_ms": 48173,
      "duration_ms": 481,
      "gate_ms": 432,
      "note": 70,
      "frequency_hz": 466,
      "loudness_level": 3,
      "velocity": 105
    },
    {
      "start_ms": 48654,
      "duration_ms": 19,
      "rest": true
    },
    {
      "start_ms": 48673,
      "duration_ms": 878,
      "gate_ms": 790,
      "note": 67,
      "frequency_hz": 392,
      "loudness_level": 3,
      "velocity": 105
    },
    {
      "start_ms": 49551,
      "duration_ms": 456,
      "rest": true
    },
    {
      "start_ms": 50007,
      "duration_ms": 181,
      "gate_ms": 162,
      "note": 70,
      "frequency_hz": 466,
      "loudness_level": 3,
      "velocity": 119
    },
    {
      "start_ms": 50188,
      "duration_ms": 153,
      "rest": true
    },
    {
      "start_ms": 50341,
      "duration_ms": 442,
      "gate_ms": 397,
      "note": 72,
      "frequency_hz": 523,
      "loudness_level": 3,
      "velocity": 119
    },
    {
      "start_ms": 50783,
      "duration_ms": 58,
      "rest": true
    },
    {
      "start_ms": 50841,
      "duration_ms": 419,
      "gate_ms": 377,
      "note": 70,
      "frequency_hz": 466,
      "loudness_level": 3,
      "velocity": 119
    },
    {
      "start_ms": 51260,
      "duration_ms": 81,
      "rest": true
    },
    {
      "start_ms": 51341,
      "duration_ms": 511,
      "gate_ms": 460,
      "note": 67,
      "frequency_hz": 392,
      "loudness_level": 3,
      "velocity": 114
    },
    {
      "start_ms": 51852,
      "duration_ms": 156,
      "rest": true
    },
    {
      "start_ms": 52008,
      "duration_ms": 283,
      "gate_ms": 255,
      "note": 67,
      "frequency_hz": 392,
      "loudness_level": 3,
      "velocity": 119
    },
    {
      "start_ms": 52291,
      "duration_ms": 50,
      "rest": true
    },
    {
      "start_ms": 52341,
      "duration_ms": 144,
      "gate_ms": 130,
      "note": 63,
      "frequency_hz": 311,
      "loudness_level": 3,
      "velocity": 114
    },
    {
      "start_ms": 52485,
      "duration_ms": 189,
      "rest": true
    },
    {
      "start_ms": 52674,
      "duration_ms": 164,
      "gate_ms": 147,
      "note": 63,
      "frequency_hz": 311,
      "loudness_level": 3,
      "velocity": 110
    },
    {
      "start_ms": 52838,
      "duration_ms": 169,
      "rest": true
    },
    {
      "start_ms": 53007,
      "duration_ms": 206,
      "gate_ms": 185,
      "note": 63,
      "frequency_hz": 311,
      "loudness_level": 3,
      "velocity": 105
    },
    {
      "start_ms": 53213,
      "duration_ms": 128,
      "rest": true
    },
    {
      "start_ms": 53341,
      "duration_ms": 133,
      "gate_ms": 120,
      "note": 63,
      "frequency_hz": 311,
      "loudness_level": 3,
      "velocity": 110
    },
    {
      "start_ms": 53474,
      "duration_ms": 33,
      "rest": true
    },
    {
      "start_ms": 53507,
      "duration_ms": 1036,
      "gate_ms": 932,
      "note": 65,
      "frequency_hz": 349,
      "loudness_level": 3,
      "velocity": 105
    },
    {
      "start_ms": 54543,
      "duration_ms": 131,
      "rest": true
    },
    {
      "start_ms": 54674,
      "duration_ms": 114,
      "gate_ms": 102,
      "note": 63,
      "frequency_hz": 311,
      "loudness_level": 3,
      "velocity": 119
    },
    {
      "start_ms": 54788,
      "duration_ms": 219,
      "rest": true
    },
    {
      "start_ms": 55007,
      "duration_ms": 550,
      "gate_ms": 495,
      "note": 63,
      "frequency_hz": 311,
      "loudness_level": 3,
      "velocity": 105
    },
    {
      "start_ms": 55557,
      "duration_ms": 117,
      "rest": true
    },
    {
      "start_ms": 55674,
      "duration_ms": 367,
      "gate_ms": 330,
      "note": 63,
      "frequency_hz": 311,
      "loudness_level": 3,
      "velocity": 105
    },
    {
      "start_ms": 56041,
      "duration_ms": 133,
      "rest": true
    },
    {
      "start_ms": 56174,
      "duration_ms": 364,
      "gate_ms": 327,
      "note": 63,
      "frequency_hz": 311,
      "loudness_level": 3,
      "velocity": 105
    },
    {
      "start_ms": 56538,
      "duration_ms": 136,
      "rest": true
    },
    {
      "start_ms": 56674,
      "duration_ms": 497,
      "gate_ms": 447,
      "note": 63,
      "frequency_hz": 311,
      "loudness_level": 3,
      "velocity": 101
    },
    {
      "start_ms": 57171,
      "duration_ms": 169,
      "rest": true
    },
    {
      "start_ms": 57340,
      "duration_ms": 303,
      "gate_ms": 272,
      "note": 63,
      "frequency_hz": 311,
      "loudness_level": 3,
      "velocity": 105
    },
    {
      "start_ms": 57643,
      "duration_ms": 31,
      "rest": true
    },
    {
      "start_ms": 57674,
      "duration_ms": 142,
      "gate_ms": 127,
      "note": 68,
      "frequency_hz": 415,
      "loudness_level": 3,
      "velocity": 105
    },
    {
      "start_ms": 57816,
      "duration_ms": 192,
      "rest": true
    },
    {
      "start_ms": 58008,
      "duration_ms": 272,
      "gate_ms": 245,
      "note": 68,
      "frequency_hz": 415,
      "loudness_level": 3,
      "velocity": 110
    },
    {
      "start_ms": 58280,
      "duration_ms": 61,
      "rest": true
    },
    {
      "start_ms": 58341,
      "duration_ms": 253,
      "gate_ms": 227,
      "note": 70,
      "frequency_hz": 466,
      "loudness_level": 3,
      "velocity": 105
    },
    {
      "start_ms": 58594,
      "duration_ms": 81,
      "rest": true
    },
    {
      "start_ms": 58675,
      "duration_ms": 103,
      "gate_ms": 92,
      "note": 72,
      "frequency_hz": 523,
      "loudness_level": 3,
      "velocity": 105
    },
    {
      "start_ms": 58778,
      "duration_ms": 64,
      "rest": true
    },
    {
      "start_ms": 58842,
      "duration_ms": 458,
      "gate_ms": 412,
      "note": 70,
      "frequency_hz": 466,
      "loudness_level": 3,
      "velocity": 105
    },
    {
      "start_ms": 59300,
      "duration_ms": 42,
      "rest": true
    },
    {
      "start_ms": 59342,
      "duration_ms": 969,
      "gate_ms": 872,
      "note": 67,
      "frequency_hz": 392,
      "loudness_level": 3,
      "velocity": 97
    },
    {
      "start_ms": 60311,
      "duration_ms": 364,
      "rest": true
    },
    {
      "start_ms": 60675,
      "duration_ms": 325,
      "gate_ms": 292,
      "note": 68,
      "frequency_hz": 415,
      "loudness_level": 3,
      "velocity": 105
    },
    {
      "start_ms": 61000,
      "duration_ms": 8,
      "rest": true
    },
    {
      "start_ms": 61008,
      "duration_ms": 297,
      "gate_ms": 267,
      "note": 70,
      "frequency_hz": 466,
      "loudness_level": 3,
      "velocity": 105
    },
    {
      "start_ms": 61305,
      "duration_ms": 36,
      "rest": true
    },
    {
      "start_ms": 61341,
      "duration_ms": 156,
      "gate_ms": 140,
      "note": 72,
      "frequency_hz": 523,
      "loudness_level": 3,
      "velocity": 101
    },
    {
      "start_ms": 61497,
      "duration_ms": 11,
      "rest": true
    },
    {
      "start_ms": 61508,
      "duration_ms": 467,
      "gate_ms": 420,
      "note": 70,
      "frequency_hz": 466,
      "loudness_level": 3,
      "velocity": 105
    },
    {
      "start_ms": 61975,
      "duration_ms": 33,
      "rest": true
    },
    {
      "start_ms": 62008,
      "duration_ms": 569,
      "gate_ms": 512,
      "note": 67,
      "frequency_hz": 392,
      "loudness_level": 3,
      "velocity": 101
    },
    {
      "start_ms": 62577,
      "duration_ms": 97,
      "rest": true
    },
    {
      "start_ms": 62674,
      "duration_ms": 331,
      "gate_ms": 297,
      "note": 67,
      "frequency_hz": 392,
      "loudness_level": 3,
      "velocity": 110
    },
    {
      "start_ms": 63005,
      "duration_ms": 3,
      "rest": true
    },
    {
      "start_ms": 63008,
      "duration_ms": 108,
      "gate_ms": 97,
      "note": 65,
      "frequency_hz": 349,
      "loudness_level": 3,
      "velocity": 110
    },
    {
      "start_ms": 63116,
      "duration_ms": 225,
      "rest": true
    },
    {
      "start_ms": 63341,
      "duration_ms": 275,
      "gate_ms": 247,
      "note": 65,
      "frequency_hz": 349,
      "loudness_level": 3,
      "velocity": 105
    },
    {
      "start_ms": 63616,
      "duration_ms": 58,
      "rest": true
    },
    {
      "start_ms": 63674,
      "duration_ms": 275,
      "gate_ms": 247,
      "note": 67,
      "frequency_hz": 392,
      "loudness_level": 3,
      "velocity": 110
    },
    {
      "start_ms": 63949,
      "duration_ms": 58,
      "rest": true
    },
    {
      "start_ms": 64007,
      "duration_ms": 128,
      "gate_ms": 115,
      "note": 65,
      "frequency_hz": 349,
      "loudness_level": 3,
      "velocity": 105
    },
    {
      "start_ms": 64135,
      "duration_ms": 39,
      "rest": true
    },
    {
      "start_ms": 64174,
      "duration_ms": 833,
      "gate_ms": 750,
      "note": 63,
      "frequency_hz": 311,
      "loudness_level": 3,
      "velocity": 114
    },
    {
      "start_ms": 65007,
      "duration_ms": 53,
      "gate_ms": 47,
      "note": 63,
      "frequency_hz": 311,
      "loudness_level": 3,
      "velocity": 110
    },
    {
      "start_ms": 65060,
      "duration_ms": 114,
      "rest": true
    },
    {
      "start_ms": 65174,
      "duration_ms": 111,
      "gate_ms": 100,
      "note": 63,
      "frequency_hz": 311,
      "loudness_level": 3,
      "velocity": 119
    },
    {
      "start_ms": 65285,
      "duration_ms": 222,
      "rest": true
    },
    {
      "start_ms": 65507,
      "duration_ms": 78,
      "gate_ms": 70,
      "note": 63,
      "frequency_hz": 311,
      "loudness_level": 3,
      "velocity": 105
    },
    {
      "start_ms": 65585,
      "duration_ms": 89,
      "rest": true
    },
    {
      "start_ms": 65674,
      "duration_ms": 544,
      "gate_ms": 490,
      "note": 63,
      "frequency_hz": 311,
      "loudness_level": 3,
      "velocity": 125
    },
    {
      "start_ms": 66218,
      "duration_ms": 122,
      "rest": true
    },
    {
      "start_ms": 66340,
      "duration_ms": 194,
      "gate_ms": 175,
      "note": 63,
      "frequency_hz": 311,
      "loudness_level": 3,
      "velocity": 105
    },
    {
      "start_ms": 66534,
      "duration_ms": 139,
      "rest": true
    },
    {
      "start_ms": 66673,
      "duration_ms": 78,
      "gate_ms": 70,
      "note": 63,
      "frequency_hz": 311,
      "loudness_level": 3,
      "velocity": 105
    },
    {
      "start_ms": 66751,
      "duration_ms": 89,
      "rest": true
    },
    {
      "start_ms": 66840,
      "duration_ms": 311,
      "gate_ms": 280,
      "note": 63,
      "frequency_hz": 311,
      "loudness_level": 3,
      "velocity": 114
    },
    {
      "start_ms": 67151,
      "duration_ms": 189,
      "rest": true
    },
    {
      "start_ms": 67340,
      "duration_ms": 675,
      "gate_ms": 607,
      "note": 63,
      "frequency_hz": 311,
      "loudness_level": 3,
      "velocity": 119
    },
    {
      "start_ms": 68015,
      "duration_ms": 658,
      "rest": true
    },
    {
      "start_ms": 68673,
      "duration_ms": 256,
      "gate_ms": 230,
      "note": 68,
      "frequency_hz": 415,
      "loudness_level": 3,
      "velocity": 119
    },
    {
      "start_ms": 68929,
      "duration_ms": 78,
      "rest": true
    },
    {
      "start_ms": 69007,
      "duration_ms": 147,
      "gate_ms": 132,
      "note": 70,
      "frequency_hz": 466,
      "loudness_level": 3,
      "velocity": 110
    },
    {
      "start_ms": 69154,
      "duration_ms": 186,
      "rest": true
    },
    {
      "start_ms": 69340,
      "duration_ms": 108,
      "gate_ms": 97,
      "note": 72,
      "frequency_hz": 523,
      "loudness_level": 3,
      "velocity": 101
    },
    {
      "start_ms": 69448,
      "duration_ms": 58,
      "rest": true
    },
    {
      "start_ms": 69506,
      "duration_ms": 472,
      "gate_ms": 425,
      "note": 70,
      "frequency_hz": 466,
      "loudness_level": 3,
      "velocity": 105
    },
    {
      "start_ms": 69978,
      "duration_ms": 28,
      "rest": true
    },
    {
      "start_ms": 70006,
      "duration_ms": 992,
      "gate_ms": 892,
      "note": 67,
      "frequency_hz": 392,
      "loudness_level": 3,
      "velocity": 110
    },
    {
      "start_ms": 70998,
      "duration_ms": 342,
      "rest": true
    },
    {
      "start_ms": 71340,
      "duration_ms": 269,
      "gate_ms": 242,
      "note": 68,
      "frequency_hz": 415,
      "loudness_level": 3,
      "velocity": 114
    },
    {
      "start_ms": 71609,
      "duration_ms": 64,
      "rest": true
    },
    {
      "start_ms": 71673,
      "duration_ms": 142,
      "gate_ms": 127,
      "note": 70,
      "frequency_hz": 466,
      "loudness_level": 3,
      "velocity": 119
    },
    {
      "start_ms": 71815,
      "duration_ms": 192,
      "rest": true
    },
    {
      "start_ms": 72007,
      "duration_ms": 117,
      "gate_ms": 105,
      "note": 72,
      "frequency_hz": 523,
      "loudness_level": 3,
      "velocity": 101
    },
    {
      "start_ms": 72124,
      "duration_ms": 50,
      "rest": true
    },
    {
      "start_ms": 72174,
      "duration_ms": 414,
      "gate_ms": 372,
      "note": 70,
      "frequency_hz": 466,
      "loudness_level": 3,
      "velocity": 110
    },
    {
      "start_ms": 72588,
      "duration_ms": 86,
      "rest": true
    },
    {
      "start_ms": 72674,
      "duration_ms": 1056,
      "gate_ms": 950,
      "note": 67,
      "frequency_hz": 392,
      "loudness_level": 3,
      "velocity": 110
    },
    {
      "start_ms": 73730,
      "duration_ms": 278,
      "rest": true
    },
    {
      "start_ms": 74008,
      "duration_ms": 308,
      "gate_ms": 277,
      "note": 63,
      "frequency_hz": 311,
      "loudness_level": 3,
      "velocity": 125
    },
    {
      "start_ms": 74316,
      "duration_ms": 25,
      "rest": true
    },
    {
      "start_ms": 74341,
      "duration_ms": 267,
      "gate_ms": 240,
      "note": 62,
      "frequency_hz": 294,
      "loudness_level": 3,
      "velocity": 105
    },
    {
      "start_ms": 74608,
      "duration_ms": 67,
      "rest": true
    },
    {
      "start_ms": 74675,
      "duration_ms": 153,
      "gate_ms": 137,
      "note": 63,
      "frequency_hz": 311,
      "loudness_level": 3,
      "velocity": 114
    },
    {
      "start_ms": 74828,
      "duration_ms": 14,
      "rest": true
    },
    {
      "start_ms": 74842,
      "duration_ms": 733,
      "gate_ms": 660,
      "note": 65,
      "frequency_hz": 349,
      "loudness_level": 3,
      "velocity": 119
    },
    {
      "start_ms": 75575,
      "duration_ms": 100,
      "rest": true
    },
    {
      "start_ms": 75675,
      "duration_ms": 108,
      "gate_ms": 97,
      "note": 67,
      "frequency_hz": 392,
      "loudness_level": 3,
      "velocity": 119
    },
    {
      "start_ms": 75783,
      "duration_ms": 58,
      "rest": true
    },
    {
      "start_ms": 75841,
      "duration_ms": 194,
      "gate_ms": 175,
      "note": 65,
      "frequency_hz": 349,
      "loudness_level": 3,
      "velocity": 125
    },
    {
      "start_ms": 76035,
      "duration_ms": 139,
      "rest": true
    },
    {
      "start_ms": 76174,
      "duration_ms": 61,
      "gate_ms": 55,
      "note": 65,
      "frequency_hz": 349,
      "loudness_level": 3,
      "velocity": 110
    },
    {
      "start_ms": 76235,
      "duration_ms": 106,
      "rest": true
    },
    {
      "start_ms": 76341,
      "duration_ms": 606,
      "gate_ms": 545,
      "note": 63,
      "frequency_hz": 311,
      "loudness_level": 3,
      "velocity": 125
    },
    {
      "start_ms": 76947,
      "duration_ms": 61,
      "rest": true
    },
    {
      "start_ms": 77008,
      "duration_ms": 386,
      "gate_ms": 347,
      "note": 65,
      "frequency_hz": 349,
      "loudness_level": 3,
      "velocity": 110
    },
    {
      "start_ms": 77394,
      "duration_ms": 114,
      "rest": true
    },
    {
      "start_ms": 77508,
      "duration_ms": 906,
      "gate_ms": 815,
      "note": 63,
      "frequency_hz": 311,
      "loudness_level": 3,
      "velocity": 119
    },
    {
      "start_ms": 78414,
      "duration_ms": 261,
      "rest": true
    },
    {
      "start_ms": 78675,
      "duration_ms": 167,
      "gate_ms": 150,
      "note": 63,
      "frequency_hz": 311,
      "loudness_level": 3,
      "velocity": 119
    },
    {
      "start_ms": 78842,
      "duration_ms": 167,
      "rest": true
    },
    {
      "start_ms": 79009,
      "duration_ms": 158,
      "gate_ms": 142,
      "note": 68,
      "frequency_hz": 415,
      "loudness_level": 3,
      "velocity": 110
    },
    {
      "start_ms": 79167,
      "duration_ms": 175,
      "rest": true
    },
    {
      "start_ms": 79342,
      "duration_ms": 147,
      "gate_ms": 132,
      "note": 68,
      "frequency_hz": 415,
      "loudness_level": 3,
      "velocity": 110
    },
    {
      "start_ms": 79489,
      "duration_ms": 186,
      "rest": true
    },
    {
      "start_ms": 79675,
      "duration_ms": 206,
      "gate_ms": 185,
      "note": 70,
      "frequency_hz": 466,
      "loudness_level": 3,
      "velocity": 110
    },
    {
      "start_ms": 79881,
      "duration_ms": 128,
      "rest": true
    },
    {
      "start_ms": 80009,
      "duration_ms": 111,
      "gate_ms": 100,
      "note": 72,
      "frequency_hz": 523,
      "loudness_level": 3,
      "velocity": 105
    },
    {
      "start_ms": 80120,
      "duration_ms": 56,
      "rest": true
    },
    {
      "start_ms": 80176,
      "duration_ms": 456,
      "gate_ms": 410,
      "note": 70,
      "frequency_hz": 466,
      "loudness_level": 3,
      "velocity": 114
    },
    {
      "start_ms": 80632,
      "duration_ms": 44,
      "rest": true
    },
    {
      "start_ms": 80676,
      "duration_ms": 478,
      "gate_ms": 430,
      "note": 67,
      "frequency_hz": 392,
      "loudness_level": 3,
      "velocity": 114
    },
    {
      "start_ms": 81154,
      "duration_ms": 189,
      "rest": true
    },
    {
      "start_ms": 81343,
      "duration_ms": 94,
      "gate_ms": 85,
      "note": 67,
      "frequency_hz": 392,
      "loudness_level": 3,
      "velocity": 114
    },
    {
      "start_ms": 81437,
      "duration_ms": 239,
      "rest": true
    },
    {
      "start_ms": 81676,
      "duration_ms": 364,
      "gate_ms": 327,
      "note": 70,
      "frequency_hz": 466,
      "loudness_level": 3,
      "velocity": 114
    },
    {
      "start_ms": 82040,
      "duration_ms": 136,
      "rest": true
    },
    {
      "start_ms": 82176,
      "duration_ms": 100,
      "gate_ms": 90,
      "note": 70,
      "frequency_hz": 466,
      "loudness_level": 3,
      "velocity": 105
    },
    {
      "start_ms": 82276,
      "duration_ms": 67,
      "rest": true
    },
    {
      "start_ms": 82343,
      "duration_ms": 236,
      "gate_ms": 212,
      "note": 72,
      "frequency_hz": 523,
      "loudness_level": 3,
      "velocity": 119
    },
    {
      "start_ms": 82579,
      "duration_ms": 97,
      "rest": true
    },
    {
      "start_ms": 82676,
      "duration_ms": 86,
      "gate_ms": 77,
      "note": 70,
      "frequency_hz": 466,
      "loudness_level": 3,
      "velocity": 105
    },
    {
      "start_ms": 82762,
      "duration_ms": 81,
      "rest": true
    },
    {
      "start_ms": 82843,
      "duration_ms": 367,
      "gate_ms": 330,
      "note": 70,
      "frequency_hz": 466,
      "loudness_level": 3,
      "velocity": 114
    },
    {
      "start_ms": 83210,
      "duration_ms": 133,
      "rest": true
    },
    {
      "start_ms": 83343,
      "duration_ms": 942,
      "gate_ms": 847,
      "note": 67,
      "frequency_hz": 392,
      "loudness_level": 3,
      "velocity": 125
    },
    {
      "start_ms": 84285,
      "duration_ms": 392,
      "rest": true
    },
    {
      "start_ms": 84677,
      "duration_ms": 89,
      "gate_ms": 80,
      "note": 65,
      "frequency_hz": 349,
      "loudness_level": 3,
      "velocity": 119
    },
    {
      "start_ms": 84766,
      "duration_ms": 78,
      "rest": true
    },
    {
      "start_ms": 84844,
      "duration_ms": 106,
      "gate_ms": 95,
      "note": 65,
      "frequency_hz": 349,
      "loudness_level": 3,
      "velocity": 114
    },
    {
      "start_ms": 84950,
      "duration_ms": 61,
      "rest": true
    },
    {
      "start_ms": 85011,
      "duration_ms": 344,
      "gate_ms": 310,
      "note": 67,
      "frequency_hz": 392,
      "loudness_level": 3,
      "velocity": 114
    },
    {
      "start_ms": 85355,
      "duration_ms": 244,
      "gate_ms": 220,
      "note": 62,
      "frequency_hz": 294,
      "loudness_level": 3,
      "velocity": 125
    },
    {
      "start_ms": 85599,
      "duration_ms": 89,
      "rest": true
    },
    {
      "start_ms": 85688,
      "duration_ms": 1725,
      "gate_ms": 1552,
      "note": 63,
      "frequency_hz": 311,
      "loudness_level": 3,
      "velocity": 125
    },
    {
      "start_ms": 87413,
      "duration_ms": 3000,
      "rest": true
    },
    {
      "start_ms": 90413,
      "duration_ms": 542,
      "gate_ms": 487,
      "note": 64,
      "frequency_hz": 330,
      "loudness_level": 3,
      "velocity": 119
    },
    {
      "start_ms": 90955,
      "duration_ms": 125,
      "rest": true
    },
    {
      "start_ms": 91080,
      "duration_ms": 203,
      "gate_ms": 182,
      "note": 64,
      "frequency_hz": 330,
      "loudness_level": 3,
      "velocity": 110
    },
    {
      "start_ms": 91283,
      "duration_ms": 131,
      "rest": true
    },
    {
      "start_ms": 91414,
      "duration_ms": 67,
      "gate_ms": 60,
      "note": 64,
      "frequency_hz": 330,
      "loudness_level": 3,
      "velocity": 97
    },
    {
      "start_ms": 91481,
      "duration_ms": 100,
      "rest": true
    },
    {
      "start_ms": 91581,
      "duration_ms": 292,
      "gate_ms": 262,
      "note": 64,
      "frequency_hz": 330,
      "loudness_level": 3,
      "velocity": 114
    },
    {
      "start_ms": 91873,
      "duration_ms": 208,
      "rest": true
    },
    {
      "start_ms": 92081,
      "duration_ms": 553,
      "gate_ms": 497,
      "note": 64,
      "frequency_hz": 330,
      "loudness_level": 3,
      "velocity": 114
    },
    {
      "start_ms": 92634,
      "duration_ms": 114,
      "rest": true
    },
    {
      "start_ms": 92748,
      "duration_ms": 214,
      "gate_ms": 192,
      "note": 64,
      "frequency_hz": 330,
      "loudness_level": 3,
      "velocity": 119
    },
    {
      "start_ms": 92962,
      "duration_ms": 119,
      "rest": true
    },
    {
      "start_ms": 93081,
      "duration_ms": 150,
      "gate_ms": 135,
      "note": 69,
      "frequency_hz": 440,
      "loudness_level": 3,
      "velocity": 110
    },
    {
      "start_ms": 93231,
      "duration_ms": 183,
      "rest": true
    },
    {
      "start_ms": 93414,
      "duration_ms": 253,
      "gate_ms": 227,
      "note": 69,
      "frequency_hz": 440,
      "loudness_level": 3,
      "velocity": 114
    },
    {
      "start_ms": 93667,
      "duration_ms": 81,
      "rest": true
    },
    {
      "start_ms": 93748,
      "duration_ms": 128,
      "gate_ms": 115,
      "note": 71,
      "frequency_hz": 494,
      "loudness_level": 3,
      "velocity": 114
    },
    {
      "start_ms": 93876,
      "duration_ms": 206,
      "rest": true
    },
    {
      "start_ms": 94082,
      "duration_ms": 83,
      "gate_ms": 75,
      "note": 73,
      "frequency_hz": 554,
      "loudness_level": 3,
      "velocity": 110
    },
    {
      "start_ms": 94165,
      "duration_ms": 83,
      "rest": true
    },
    {
      "start_ms": 94248,
      "duration_ms": 481,
      "gate_ms": 432,
      "note": 71,
      "frequency_hz": 494,
      "loudness_level": 3,
      "velocity": 105
    },
    {
      "start_ms": 94729,
      "duration_ms": 19,
      "rest": true
    },
    {
      "start_ms": 94748,
      "duration_ms": 878,
      "gate_ms": 790,
      "note": 68,
      "frequency_hz": 415,
      "loudness_level": 3,
      "velocity": 105
    },
    {
      "start_ms": 95626,
      "duration_ms": 456,
      "rest": true
    },
    {
      "start_ms": 96082,
      "duration_ms": 181,
      "gate_ms": 162,
      "note": 71,
      "frequency_hz": 494,
      "loudness_level": 3,
      "velocity": 119
    },
    {
      "start_ms": 96263,
      "duration_ms": 153,
      "rest": true
    },
    {
      "start_ms": 96416,
      "duration_ms": 442,
      "gate_ms": 397,
      "note": 73,
      "frequency_hz": 554,
      "loudness_level": 3,
      "velocity": 119
    },
    {
      "start_ms": 96858,
      "duration_ms": 58,
      "rest": true
    },
    {
      "start_ms": 96916,
      "duration_ms": 419,
      "gate_ms": 377,
      "note": 71,
      "frequency_hz": 494,
      "loudness_level": 3,
      "velocity": 119
    },
    {
      "start_ms": 97335,
      "duration_ms": 81,
      "rest": true
    },
    {
      "start_ms": 97416,
      "duration_ms": 511,
      "gate_ms": 460,
      "note": 68,
      "frequency_hz": 415,
      "loudness_level": 3,
      "velocity": 114
    },
    {
      "start_ms": 97927,
      "duration_ms": 156,
      "rest": true
    },
    {
      "start_ms": 98083,
      "duration_ms": 283,
      "gate_ms": 255,
      "note": 68,
      "frequency_hz": 415,
      "loudness_level": 3,
      "velocity": 119
    },
    {
      "start_ms": 98366,
      "duration_ms": 50,
      "rest": true
    },
    {
      "start_ms": 98416,
      "duration_ms": 144,
      "gate_ms": 130,
      "note": 64,
      "frequency_hz": 330,
      "loudness_level": 3,
      "velocity": 114
    },
    {
      "start_ms": 98560,
      "duration_ms": 189,
      "rest": true
    },
    {
      "start_ms": 98749,
      "duration_ms": 164,
      "gate_ms": 147,
      "note": 64,
      "frequency_hz": 330,
      "loudness_level": 3,
      "velocity": 110
    },
    {
      "start_ms": 98913,
      "duration_ms": 169,
      "rest": true
    },
    {
      "start_ms": 99082,
      "duration_ms": 206,
      "gate_ms": 185,
      "note": 64,
      "frequency_hz": 330,
      "loudness_level": 3,
      "velocity": 105
    },
    {
      "start_ms": 99288,
      "duration_ms": 128,
      "rest": true
    },
    {
      "start_ms": 99416,
      "duration_ms": 133,
      "gate_ms": 120,
      "note": 64,
      "frequency_hz": 330,
      "loudness_level": 3,
      "velocity": 110
    },
    {
      "start_ms": 99549,
      "duration_ms": 33,
      "rest": true
    },
    {
      "start_ms": 99582,
      "duration_ms": 1036,
      "gate_ms": 932,
      "note": 66,
      "frequency_hz": 370,
      "loudness_level": 3,
      "velocity": 105
    },
    {
      "start_ms": 100618,
      "duration_ms": 131,
      "rest": true
    },
    {
      "start_ms": 100749,
      "duration_ms": 114,
      "gate_ms": 102,
      "note": 64,
      "frequency_hz": 330,
      "loudness_level": 3,
      "velocity": 119
    },
    {
      "start_ms": 100863,
      "duration_ms": 219,
      "rest": true
    },
    {
      "start_ms": 101082,
      "duration_ms": 550,
      "gate_ms": 495,
      "note": 64,
      "frequency_hz": 330,
      "loudness_level": 3,
      "velocity": 105
    },
    {
      "start_ms": 101632,
      "duration_ms": 117,
      "rest": true
    },
    {
      "start_ms": 101749,
      "duration_ms": 367,
      "gate_ms": 330,
      "note": 64,
      "frequency_hz": 330,
      "loudness_level": 3,
      "velocity": 105
    },
    {
      "start_ms": 102116,
      "duration_ms": 133,
      "rest": true
    },
    {
      "start_ms": 102249,
      "duration_ms": 364,
      "gate_ms": 327,
      "note": 64,
      "frequency_hz": 330,
      "loudness_level": 3,
      "velocity": 105
    },
    {
      "start_ms": 102613,
      "duration_ms": 136,
      "rest": true
    },
    {
      "start_ms": 102749,
      "duration_ms": 497,
      "gate_ms": 447,
      "note": 64,
      "frequency_hz": 330,
      "loudness_level": 3,
      "velocity": 101
    },
    {
      "start_ms": 103246,
      "duration_ms": 169,
      "rest": true
    },
    {
      "start_ms": 103415,
      "duration_ms": 303,
      "gate_ms": 272,
      "note": 64,
      "frequency_hz": 330,
      "loudness_level": 3,
      "velocity": 105
    },
    {
      "start_ms": 103718,
      "duration_ms": 31,
      "rest": true
    },
    {
      "start_ms": 103749,
      "duration_ms": 142,
      "gate_ms": 127,
      "note": 69,
      "frequency_hz": 440,
      "loudness_level": 3,
      "velocity": 105
    },
    {
      "start_ms": 103891,
      "duration_ms": 192,
      "rest": true
    },
    {
      "start_ms": 104083,
      "duration_ms": 272,
      "gate_ms": 245,
      "note": 69,
      "frequency_hz": 440,
      "loudness_level": 3,
      "velocity": 110
    },
    {
      "start_ms": 104355,
      "duration_ms": 61,
      "rest": true
    },
    {
      "start_ms": 104416,
      "duration_ms": 253,
      "gate_ms": 227,
      "note": 71,
      "frequency_hz": 494,
      "loudness_level": 3,
      "velocity": 105
    },
    {
      "start_ms": 104669,
      "duration_ms": 81,
      "rest": true
    },
    {
      "start_ms": 104750,
      "duration_ms": 103,
      "gate_ms": 92,
      "note": 73,
      "frequency_hz": 554,
      "loudness_level": 3,
      "velocity": 105
    },
    {
      "start_ms": 104853,
      "duration_ms": 64,
      "rest": true
    },
    {
      "start_ms": 104917,
      "duration_ms": 458,
      "gate_ms": 412,
      "note": 71,
      "frequency_hz": 494,
      "loudness_level": 3,
      "velocity": 105
    },
    {
      "start_ms": 105375,
      "duration_ms": 42,
      "rest": true
    },
    {
      "start_ms": 105417,
      "duration_ms": 969,
      "gate_ms": 872,
      "note": 68,
      "frequency_hz": 415,
      "loudness_level": 3,
      "velocity": 97
    },
    {
      "start_ms": 106386,
      "duration_ms": 364,
      "rest": true
    },
    {
      "start_ms": 106750,
      "duration_ms": 325,
      "gate_ms": 292,
      "note": 69,
      "frequency_hz": 440,
      "loudness_level": 3,
      "velocity": 105
    },
    {
      "start_ms": 107075,
      "duration_ms": 8,
      "rest": true
    },
    {
      "start_ms": 107083,
      "duration_ms": 297,
      "gate_ms": 267,
      "note": 71,
      "frequency_hz": 494,
      "loudness_level": 3,
      "velocity": 105
    },
    {
      "start_ms": 107380,
      "duration_ms": 36,
      "rest": true
    },
    {
      "start_ms": 107416,
      "duration_ms": 156,
      "gate_ms": 140,
      "note": 73,
      "frequency_hz": 554,
      "loudness_level": 3,
      "velocity": 101
    },
    {
      "start_ms": 107572,
      "duration_ms": 11,
      "rest": true
    },
    {
      "start_ms": 107583,
      "duration_ms": 467,
      "gate_ms": 420,
      "note": 71,
      "frequency_hz": 494,
      "loudness_level": 3,
      "velocity": 105
    },
    {
      "start_ms": 108050,
      "duration_ms": 33,
      "rest": true
    },
    {
      "start_ms": 108083,
      "duration_ms": 569,
      "gate_ms": 512,
      "note": 68,
      "frequency_hz": 415,
      "loudness_level": 3,
      "velocity": 101
    },
    {
      "start_ms": 108652,
      "duration_ms": 97,
      "rest": true
    },
    {
      "start_ms": 108749,
      "duration_ms": 331,
      "gate_ms": 297,
      "note": 68,
      "frequency_hz": 415,
      "loudness_level": 3,
      "velocity": 110
    },
    {
      "start_ms": 109080,
      "duration_ms": 3,
      "rest": true
    },
    {
      "start_ms": 109083,
      "duration_ms": 108,
      "gate_ms": 97,
      "note": 66,
      "frequency_hz": 370,
      "loudness_level": 3,
      "velocity": 110
    },
    {
      "start_ms": 109191,
      "duration_ms": 225,
      "rest": true
    },
    {
      "start_ms": 109416,
      "duration_ms": 275,
      "gate_ms": 247,
      "note": 66,
      "frequency_hz": 370,
      "loudness_level": 3,
      "velocity": 105
    },
    {
      "start_ms": 109691,
      "duration_ms": 58,
      "rest": true
    },
    {
      "start_ms": 109749,
      "duration_ms": 275,
      "gate_ms": 247,
      "note": 68,
      "frequency_hz": 415,
      "loudness_level": 3,
      "velocity": 110
    },
    {
      "start_ms": 110024,
      "duration_ms": 58,
      "rest": true
    },
    {
      "start_ms": 110082,
      "duration_ms": 128,
      "gate_ms": 115,
      "note": 66,
      "frequency_hz": 370,
      "loudness_level": 3,
      "velocity": 105
    },
    {
      "start_ms": 110210,
      "duration_ms": 39,
      "rest": true
    },
    {
      "start_ms": 110249,
      "duration_ms": 886,
      "gate_ms": 797,
      "note": 64,
      "frequency_hz": 330,
      "loudness_level": 3,
      "velocity": 114
    },
    {
      "start_ms": 111135,
      "duration_ms": 614,
      "rest": true
    },
    {
      "start_ms": 111749,
      "duration_ms": 542,
      "gate_ms": 487,
      "note": 64,
      "frequency_hz": 330,
      "loudness_level": 3,
      "velocity": 119
    },
    {
      "start_ms": 112291,
      "duration_ms": 125,
      "rest": true
    },
    {
      "start_ms": 112416,
      "duration_ms": 203,
      "gate_ms": 182,
      "note": 64,
      "frequency_hz": 330,
      "loudness_level": 3,
      "velocity": 110
    },
    {
      "start_ms": 112619,
      "duration_ms": 131,
      "rest": true
    },
    {
      "start_ms": 112750,
      "duration_ms": 67,
      "gate_ms": 60,
      "note": 64,
      "frequency_hz": 330,
      "loudness_level": 3,
      "velocity": 97
    },
    {
      "start_ms": 112817,
      "duration_ms": 100,
      "rest": true
    },
    {
      "start_ms": 112917,
      "duration_ms": 292,
      "gate_ms": 262,
      "note": 64,
      "frequency_hz": 330,
      "loudness_level": 3,
      "velocity": 114
    },
    {
      "start_ms": 113209,
      "duration_ms": 208,
      "rest": true
    },
    {
      "start_ms": 113417,
      "duration_ms": 553,
      "gate_ms": 497,
      "note": 64,
      "frequency_hz": 330,
      "loudness_level": 3,
      "velocity": 114
    },
    {
      "start_ms": 113970,
      "duration_ms": 114,
      "rest": true
    },
    {
      "start_ms": 114084,
      "duration_ms": 214,
      "gate_ms": 192,
      "note": 64,
      "frequency_hz": 330,
      "loudness_level": 3,
      "velocity": 119
    },
    {
      "start_ms": 114298,
      "duration_ms": 119,
      "rest": true
    },
    {
      "start_ms": 114417,
      "duration_ms": 150,
      "gate_ms": 135,
      "note": 69,
      "frequency_hz": 440,
      "loudness_level": 3,
      "velocity": 110
    },
    {
      "start_ms": 114567,
      "duration_ms": 183,
      "rest": true
    },
    {
      "start_ms": 114750,
      "duration_ms": 253,
      "gate_ms": 227,
      "note": 69,
      "frequency_hz": 440,
      "loudness_level": 3,
      "velocity": 114
    },
    {
      "start_ms": 115003,
      "duration_ms": 81,
      "rest": true
    },
    {
      "start_ms": 115084,
      "duration_ms": 128,
      "gate_ms": 115,
      "note": 71,
      "frequency_hz": 494,
      "loudness_level": 3,
      "velocity": 114
    },
    {
      "start_ms": 115212,
      "duration_ms": 206,
      "rest": true
    },
    {
      "start_ms": 115418,
      "duration_ms": 83,
      "gate_ms": 75,
      "note": 73,
      "frequency_hz": 554,
      "loudness_level": 3,
      "velocity": 110
    },
    {
      "start_ms": 115501,
      "duration_ms": 83,
      "rest": true
    },
    {
      "start_ms": 115584,
      "duration_ms": 481,
      "gate_ms": 432,
      "note": 71,
      "frequency_hz": 494,
      "loudness_level": 3,
      "velocity": 105
    },
    {
      "start_ms": 116065,
      "duration_ms": 19,
      "rest": true
    },
    {
      "start_ms": 116084,
      "duration_ms": 878,
      "gate_ms": 790,
      "note": 68,
      "frequency_hz": 415,
      "loudness_level": 3,
      "velocity": 105
    },
    {
      "start_ms": 116962,
      "duration_ms": 456,
      "rest": true
    },
    {
      "start_ms": 117418,
      "duration_ms": 181,
      "gate_ms": 162,
      "note": 71,
      "frequency_hz": 494,
      "loudness_level": 3,
      "velocity": 119
    },
    {
      "start_ms": 117599,
      "duration_ms": 153,
      "rest": true
    },
    {
      "start_ms": 117752,
      "duration_ms": 442,
      "gate_ms": 397,
      "note": 73,
      "frequency_hz": 554,
      "loudness_level": 3,
      "velocity": 119
    },
    {
      "start_ms": 118194,
      "duration_ms": 58,
      "rest": true
    },
    {
      "start_ms": 118252,
      "duration_ms": 419,
      "gate_ms": 377,
      "note": 71,
      "frequency_hz": 494,
      "loudness_level": 3,
      "velocity": 119
    },
    {
      "start_ms": 118671,
      "duration_ms": 81,
      "rest": true
    },
    {
      "start_ms": 118752,
      "duration_ms": 511,
      "gate_ms": 460,
      "note": 68,
      "frequency_hz": 415,
      "loudness_level": 3,
      "velocity": 114
    },
    {
      "start_ms": 119263,
      "duration_ms": 156,
      "rest": true
    },
    {
      "start_ms": 119419,
      "duration_ms": 283,
      "gate_ms": 255,
      "note": 68,
      "frequency_hz": 415,
      "loudness_level": 3,
      "velocity": 119
    },
    {
      "start_ms": 119702,
      "duration_ms": 50,
      "rest": true
    },
    {
      "start_ms": 119752,
      "duration_ms": 144,
      "gate_ms": 130,
      "note": 64,
      "frequency_hz": 330,
      "loudness_level": 3,
      "velocity": 114
    },
    {
      "start_ms": 119896,
      "duration_ms": 189,
      "rest": true
    },
    {
      "start_ms": 120085,
      "duration_ms": 164,
      "gate_ms": 147,
      "note": 64,
      "frequency_hz": 330,
      "loudness_level": 3,
      "velocity": 110
    },
    {
      "start_ms": 120249,
      "duration_ms": 169,
      "rest": true
    },
    {
      "start_ms": 120418,
      "duration_ms": 206,
      "gate_ms": 185,
      "note": 64,
      "frequency_hz": 330,
      "loudness_level": 3,
      "velocity": 105
    },
    {
      "start_ms": 120624,
      "duration_ms": 128,
      "rest": true
    },
    {
      "start_ms": 120752,
      "duration_ms": 133,
      "gate_ms": 120,
      "note": 64,
      "frequency_hz": 330,
      "loudness_level": 3,
      "velocity": 110
    },
    {
      "start_ms": 120885,
      "duration_ms": 33,
      "rest": true
    },
    {
      "start_ms": 120918,
      "duration_ms": 1036,
      "gate_ms": 932,
      "note": 66,
      "frequency_hz": 370,
      "loudness_level": 3,
      "velocity": 105
    },
    {
      "start_ms": 121954,
      "duration_ms": 131,
      "rest": true
    },
    {
      "start_ms": 122085,
      "duration_ms": 114,
      "gate_ms": 102,
      "note": 64,
      "frequency_hz": 330,
      "loudness_level": 3,
      "velocity": 119
    },
    {
      "start_ms": 122199,
      "duration_ms": 219,
      "rest": true
    },
    {
      "start_ms": 122418,
      "duration_ms": 550,
      "gate_ms": 495,
      "note": 64,
      "frequency_hz": 330,
      "loudness_level": 3,
      "velocity": 105
    },
    {
      "start_ms": 122968,
      "duration_ms": 117,
      "rest": true
    },
    {
      "start_ms": 123085,
      "duration_ms": 367,
      "gate_ms": 330,
      "note": 64,
      "frequency_hz": 330,
      "loudness_level": 3,
      "velocity": 105
    },
    {
      "start_ms": 123452,
      "duration_ms": 133,
      "rest": true
    },
    {
      "start_ms": 123585,
      "duration_ms": 364,
      "gate_ms": 327,
      "note": 64,
      "frequency_hz": 330,
      "loudness_level": 3,
      "velocity": 105
    },
    {
      "start_ms": 123949,
      "duration_ms": 136,
      "rest": true
    },
    {
      "start_ms": 124085,
      "duration_ms": 497,
      "gate_ms": 447,
      "note": 64,
      "frequency_hz": 330,
      "loudness_level": 3,
      "velocity": 101
    },
    {
      "start_ms": 124582,
      "duration_ms": 169,
      "rest": true
    },
    {
      "start_ms": 124751,
      "duration_ms": 303,
      "gate_ms": 272,
      "note": 64,
      "frequency_hz": 330,
      "loudness_level": 3,
      "velocity": 105
    },
    {
      "start_ms": 125054,
      "duration_ms": 31,
      "rest": true
    },
    {
      "start_ms": 125085,
      "duration_ms": 142,
      "gate_ms": 127,
      "note": 69,
      "frequency_hz": 440,
      "loudness_level": 3,
      "velocity": 105
    },
    {
      "start_ms": 125227,
      "duration_ms": 192,
      "rest": true
    },
    {
      "start_ms": 125419,
      "duration_ms": 272,
      "gate_ms": 245,
      "note": 69,
      "frequency_hz": 440,
      "loudness_level": 3,
      "velocity": 110
    },
    {
      "start_ms": 125691,
      "duration_ms": 61,
      "rest": true
    },
    {
      "start_ms": 125752,
      "duration_ms": 253,
      "gate_ms": 227,
      "note": 71,
      "frequency_hz": 494,
      "loudness_level": 3,
      "velocity": 105
    },
    {
      "start_ms": 126005,
      "duration_ms": 81,
      "rest": true
    },
    {
      "start_ms": 126086,
      "duration_ms": 103,
      "gate_ms": 92,
      "note": 73,
      "frequency_hz": 554,
      "loudness_level": 3,
      "velocity": 105
    },
    {
      "start_ms": 126189,
      "duration_ms": 64,
      "rest": true
    },
    {
      "start_ms": 126253,
      "duration_ms": 458,
      "gate_ms": 412,
      "note": 71,
      "frequency_hz": 494,
      "loudness_level": 3,
      "velocity": 105
    },
    {
      "start_ms": 126711,
      "duration_ms": 42,
      "rest": true
    },
    {
      "start_ms": 126753,
      "duration_ms": 969,
      "gate_ms": 872,
      "note": 68,
      "frequency_hz": 415,
      "loudness_level": 3,
      "velocity": 97
    },
    {
      "start_ms": 127722,
      "duration_ms": 364,
      "rest": true
    },
    {
      "start_ms": 128086,
      "duration_ms": 325,
      "gate_ms": 292,
      "note": 69,
      "frequency_hz": 440,
      "loudness_level": 3,
      "velocity": 105
    },
    {
      "start_ms": 128411,
      "duration_ms": 8,
      "rest": true
    },
    {
      "start_ms": 128419,
      "duration_ms": 297,
      "gate_ms": 267,
      "note": 71,
      "frequency_hz": 494,
      "loudness_level": 3,
      "velocity": 105
    },
    {
      "start_ms": 128716,
      "duration_ms": 36,
      "rest": true
    },
    {
      "start_ms": 128752,
      "duration_ms": 156,
      "gate_ms": 140,
      "note": 73,
      "frequency_hz": 554,
      "loudness_level": 3,
      "velocity": 101
    },
    {
      "start_ms": 128908,
      "duration_ms": 11,
      "rest": true
    },
    {
      "start_ms": 128919,
      "duration_ms": 467,
      "gate_ms": 420,
      "note": 71,
      "frequency_hz": 494,
      "loudness_level": 3,
      "velocity": 105
    },
    {
      "start_ms": 129386,
      "duration_ms": 33,
      "rest": true
    },
    {
      "start_ms": 129419,
      "duration_ms": 569,
      "gate_ms": 512,
      "note": 68,
      "frequency_hz": 415,
      "loudness_level": 3,
      "velocity": 101
    },
    {
      "start_ms": 129988,
      "duration_ms": 97,
      "rest": true
    },
    {
      "start_ms": 130085,
      "duration_ms": 331,
      "gate_ms": 297,
      "note": 68,
      "frequency_hz": 415,
      "loudness_level": 3,
      "velocity": 110
    },
    {
      "start_ms": 130416,
      "duration_ms": 3,
      "rest": true
    },
    {
      "start_ms": 130419,
      "duration_ms": 108,
      "gate_ms": 97,
      "note": 66,
      "frequency_hz": 370,
      "loudness_level": 3,
      "velocity": 110
    },
    {
      "start_ms": 130527,
      "duration_ms": 225,
      "rest": true
    },
    {
      "start_ms": 130752,
      "duration_ms": 275,
      "gate_ms": 247,
      "note": 66,
      "frequency_hz": 370,
      "loudness_level": 3,
      "velocity": 105
    },
    {
      "start_ms": 131027,
      "duration_ms": 58,
      "rest": true
    },
    {
      "start_ms": 131085,
      "duration_ms": 275,
      "gate_ms": 247,
      "note": 68,
      "frequency_hz": 415,
      "loudness_level": 3,
      "velocity": 110
    },
    {
      "start_ms": 131360,
      "duration_ms": 58,
      "rest": true
    },
    {
      "start_ms": 131418,
      "duration_ms": 128,
      "gate_ms": 115,
      "note": 66,
      "frequency_hz": 370,
      "loudness_level": 3,
      "velocity": 105
    },
    {
      "start_ms": 131546,
      "duration_ms": 39,
      "rest": true
    },
    {
      "start_ms": 131585,
      "duration_ms": 833,
      "gate_ms": 750,
      "note": 64,
      "frequency_hz": 330,
      "loudness_level": 3,
      "velocity": 114
    },
    {
      "start_ms": 132418,
      "duration_ms": 53,
      "gate_ms": 47,
      "note": 64,
      "frequency_hz": 330,
      "loudness_level": 3,
      "velocity": 110
    },
    {
      "start_ms": 132471,
      "duration_ms": 114,
      "rest": true
    },
    {
      "start_ms": 132585,
      "duration_ms": 111,
      "gate_ms": 100,
      "note": 64,
      "frequency_hz": 330,
      "loudness_level": 3,
      "velocity": 119
    },
    {
      "start_ms": 132696,
      "duration_ms": 222,
      "rest": true
    },
    {
      "start_ms": 132918,
      "duration_ms": 78,
      "gate_ms": 70,
      "note": 64,
      "frequency_hz": 330,
      "loudness_level": 3,
      "velocity": 105
    },
    {
      "start_ms": 132996,
      "duration_ms": 89,
      "rest": true
    },
    {
      "start_ms": 133085,
      "duration_ms": 544,
      "gate_ms": 490,
      "note": 64,
      "frequency_hz": 330,
      "loudness_level": 3,
      "velocity": 125
    },
    {
      "start_ms": 133629,
      "duration_ms": 122,
      "rest": true
    },
    {
      "start_ms": 133751,
      "duration_ms": 194,
      "gate_ms": 175,
      "note": 64,
      "frequency_hz": 330,
      "loudness_level": 3,
      "velocity": 105
    },
    {
      "start_ms": 133945,
      "duration_ms": 139,
      "rest": true
    },
    {
      "start_ms": 134084,
      "duration_ms": 78,
      "gate_ms": 70,
      "note": 64,
      "frequency_hz": 330,
      "loudness_level": 3,
      "velocity": 105
    },
    {
      "start_ms": 134162,
      "duration_ms": 89,
      "rest": true
    },
    {
      "start_ms": 134251,
      "duration_ms": 311,
      "gate_ms": 280,
      "note": 64,
      "frequency_hz": 330,
      "loudness_level": 3,
      "velocity": 114
    },
    {
      "start_ms": 134562,
      "duration_ms": 189,
      "rest": true
    },
    {
      "start_ms": 134751,
      "duration_ms": 675,
      "gate_ms": 607,
      "note": 64,
      "frequency_hz": 330,
      "loudness_level": 3,
      "velocity": 119
    },
    {
      "start_ms": 135426,
      "duration_ms": 658,
      "rest": true
    },
    {
      "start_ms": 136084,
      "duration_ms": 256,
      "gate_ms": 230,
      "note": 69,
      "frequency_hz": 440,
      "loudness_level": 3,
      "velocity": 119
    },
    {
      "start_ms": 136340,
      "duration_ms": 78,
      "rest": true
    },
    {
      "start_ms": 136418,
      "duration_ms": 147,
      "gate_ms": 132,
      "note": 71,
      "frequency_hz": 494,
      "loudness_level": 3,
      "velocity": 110
    },
    {
      "start_ms": 136565,
      "duration_ms": 186,
      "rest": true
    },
    {
      "start_ms": 136751,
      "duration_ms": 108,
      "gate_ms": 97,
      "note": 73,
      "frequency_hz": 554,
      "loudness_level": 3,
      "velocity": 101
    },
    {
      "start_ms": 136859,
      "duration_ms": 58,
      "rest": true
    },
    {
      "start_ms": 136917,
      "duration_ms": 472,
      "gate_ms": 425,
      "note": 71,
      "frequency_hz": 494,
      "loudness_level": 3,
      "velocity": 105
    },
    {
      "start_ms": 137389,
      "duration_ms": 28,
      "rest": true
    },
    {
      "start_ms": 137417,
      "duration_ms": 992,
      "gate_ms": 892,
      "note": 68,
      "frequency_hz": 415,
      "loudness_level": 3,
      "velocity": 110
    },
    {
      "start_ms": 138409,
      "duration_ms": 342,
      "rest": true
    },
    {
      "start_ms": 138751,
      "duration_ms": 269,
      "gate_ms": 242,
      "note": 69,
      "frequency_hz": 440,
      "loudness_level": 3,
      "velocity": 114
    },
    {
      "start_ms": 139020,
      "duration_ms": 64,
      "rest": true
    },
    {
      "start_ms": 139084,
      "duration_ms": 142,
      "gate_ms": 127,
      "note": 71,
      "frequency_hz": 494,
      "loudness_level": 3,
      "velocity": 119
    },
    {
      "start_ms": 139226,
      "duration_ms": 192,
      "rest": true
    },
    {
      "start_ms": 139418,
      "duration_ms": 117,
      "gate_ms": 105,
      "note": 73,
      "frequency_hz": 554,
      "loudness_level": 3,
      "velocity": 101
    },
    {
      "start_ms": 139535,
      "duration_ms": 50,
      "rest": true
    },
    {
      "start_ms": 139585,
      "duration_ms": 414,
      "gate_ms": 372,
      "note": 71,
      "frequency_hz": 494,
      "loudness_level": 3,
      "velocity": 110
    },
    {
      "start_ms": 139999,
      "duration_ms": 86,
      "rest": true
    },
    {
      "start_ms": 140085,
      "duration_ms": 1056,
      "gate_ms": 950,
      "note": 68,
      "frequency_hz": 415,
      "loudness_level": 3,
      "velocity": 110
    },
    {
      "start_ms": 141141,
      "duration_ms": 278,
      "rest": true
    },
    {
      "start_ms": 141419,
      "duration_ms": 308,
      "gate_ms": 277,
      "note": 64,
      "frequency_hz": 330,
      "loudness_level": 3,
      "velocity": 125
    },
    {
      "start_ms": 141727,
      "duration_ms": 25,
      "rest": true
    },
    {
      "start_ms": 141752,
      "duration_ms": 267,
      "gate_ms": 240,
      "note": 63,
      "frequency_hz": 311,
      "loudness_level": 3,
      "velocity": 105
    },
    {
      "start_ms": 142019,
      "duration_ms": 67,
      "rest": true
    },
    {
      "start_ms": 142086,
      "duration_ms": 153,
      "gate_ms": 137,
      "note": 64,
      "frequency_hz": 330,
      "loudness_level": 3,
      "velocity": 114
    },
    {
      "start_ms": 142239,
      "duration_ms": 14,
      "rest": true
    },
    {
      "start_ms": 142253,
      "duration_ms": 733,
      "gate_ms": 660,
      "note": 66,
      "frequency_hz": 370,
      "loudness_level": 3,
      "velocity": 119
    },
    {
      "start_ms": 142986,
      "duration_ms": 100,
      "rest": true
    },
    {
      "start_ms": 143086,
      "duration_ms": 108,
      "gate_ms": 97,
      "note": 68,
      "frequency_hz": 415,
      "loudness_level": 3,
      "velocity": 119
    },
    {
      "start_ms": 143194,
      "duration_ms": 58,
      "rest": true
    },
    {
      "start_ms": 143252,
      "duration_ms": 194,
      "gate_ms": 175,
      "note": 66,
      "frequency_hz": 370,
      "loudness_level": 3,
      "velocity": 125
    },
    {
      "start_ms": 143446,
      "duration_ms": 139,
      "rest": true
    },
    {
      "start_ms": 143585,
      "duration_ms": 61,
      "gate_ms": 55,
      "note": 66,
      "frequency_hz": 370,
      "loudness_level": 3,
      "velocity": 110
    },
    {
      "start_ms": 143646,
      "duration_ms": 106,
      "rest": true
    },
    {
      "start_ms": 143752,
      "duration_ms": 606,
      "gate_ms": 545,
      "note": 64,
      "frequency_hz": 330,
      "loudness_level": 3,
      "velocity": 125
    },
    {
      "start_ms": 144358,
      "duration_ms": 61,
      "rest": true
    },
    {
      "start_ms": 144419,
      "duration_ms": 386,
      "gate_ms": 347,
      "note": 66,
      "frequency_hz": 370,
      "loudness_level": 3,
      "velocity": 110
    },
    {
      "start_ms": 144805,
      "duration_ms": 114,
      "rest": true
    },
    {
      "start_ms": 144919,
      "duration_ms": 906,
      "gate_ms": 815,
      "note": 64,
      "frequency_hz": 330,
      "loudness_level": 3,
      "velocity": 119
    },
    {
      "start_ms": 145825,
      "duration_ms": 261,
      "rest": true
    },
    {
      "start_ms": 146086,
      "duration_ms": 167,
      "gate_ms": 150,
      "note": 64,
      "frequency_hz": 330,
      "loudness_level": 3,
      "velocity": 119
    },
    {
      "start_ms": 146253,
      "duration_ms": 167,
      "rest": true
    },
    {
      "start_ms": 146420,
      "duration_ms": 158,
      "gate_ms": 142,
      "note": 69,
      "frequency_hz": 440,
      "loudness_level": 3,
      "velocity": 110
    },
    {
      "start_ms": 146578,
      "duration_ms": 175,
      "rest": true
    },
    {
      "start_ms": 146753,
      "duration_ms": 147,
      "gate_ms": 132,
      "note": 69,
      "frequency_hz": 440,
      "loudness_level": 3,
      "velocity": 110
    },
    {
      "start_ms": 146900,
      "duration_ms": 186,
      "rest": true
    },
    {
      "start_ms": 147086,
      "duration_ms": 206,
      "gate_ms": 185,
      "note": 71,
      "frequency_hz": 494,
      "loudness_level": 3,
      "velocity": 110
    },
    {
      "start_ms": 147292,
      "duration_ms": 128,
      "rest": true
    },
    {
      "start_ms": 147420,
      "duration_ms": 111,
      "gate_ms": 100,
      "note": 73,
      "frequency_hz": 554,
      "loudness_level": 3,
      "velocity": 105
    },
    {
      "start_ms": 147531,
      "duration_ms": 56,
      "rest": true
    },
    {
      "start_ms": 147587,
      "duration_ms": 456,
      "gate_ms": 410,
      "note": 71,
      "frequency_hz": 494,
      "loudness_level": 3,
      "velocity": 114
    },
    {
      "start_ms": 148043,
      "duration_ms": 44,
      "rest": true
    },
    {
      "start_ms": 148087,
      "duration_ms": 478,
      "gate_ms": 430,
      "note": 68,
      "frequency_hz": 415,
      "loudness_level": 3,
      "velocity": 114
    },
    {
      "start_ms": 148565,
      "duration_ms": 189,
      "rest": true
    },
    {
      "start_ms": 148754,
      "duration_ms": 94,
      "gate_ms": 85,
      "note": 68,
      "frequency_hz": 415,
      "loudness_level": 3,
      "velocity": 114
    },
    {
      "start_ms": 148848,
      "duration_ms": 239,
      "rest": true
    },
    {
      "start_ms": 149087,
      "duration_ms": 364,
      "gate_ms": 327,
      "note": 71,
      "frequency_hz": 494,
      "loudness_level": 3,
      "velocity": 114
    },
    {
      "start_ms": 149451,
      "duration_ms": 136,
      "rest": true
    },
    {
      "start_ms": 149587,
      "duration_ms": 100,
      "gate_ms": 90,
      "note": 71,
      "frequency_hz": 494,
      "loudness_level": 3,
      "velocity": 105
    },
    {
      "start_ms": 149687,
      "duration_ms": 67,
      "rest": true
    },
    {
      "start_ms": 149754,
      "duration_ms": 236,
      "gate_ms": 212,
      "note": 73,
      "frequency_hz": 554,
      "loudness_level": 3,
      "velocity": 119
    },
    {
      "start_ms": 149990,
      "duration_ms": 97,
      "rest": true
    },
    {
      "start_ms": 150087,
      "duration_ms": 86,
      "gate_ms": 77,
      "note": 71,
      "frequency_hz": 494,
      "loudness_level": 3,
      "velocity": 105
    },
    {
      "start_ms": 150173,
      "duration_ms": 81,
      "rest": true
    },
    {
      "start_ms": 150254,
      "duration_ms": 367,
      "gate_ms": 330,
      "note": 71,
      "frequency_hz": 494,
      "loudness_level": 3,
      "velocity": 114
    },
    {
      "start_ms": 150621,
      "duration_ms": 133,
      "rest": true
    },
    {
      "start_ms": 150754,
      "duration_ms": 942,
      "gate_ms": 847,
      "note": 68,
      "frequency_hz": 415,
      "loudness_level": 3,
      "velocity": 125
    },
    {
      "start_ms": 151696,
      "duration_ms": 392,
      "rest": true
    },
    {
      "start_ms": 152088,
      "duration_ms": 89,
      "gate_ms": 80,
      "note": 66,
      "frequency_hz": 370,
      "loudness_level": 3,
      "velocity": 119
    },
    {
      "start_ms": 152177,
      "duration_ms": 78,
      "rest": true
    },
    {
      "start_ms": 152255,
      "duration_ms": 106,
      "gate_ms": 95,
      "note": 66,
      "frequency_hz": 370,
      "loudness_level": 3,
      "velocity": 114
    },
    {
      "start_ms": 152361,
      "duration_ms": 61,
      "rest": true
    },
    {
      "start_ms": 152422,
      "duration_ms": 344,
      "gate_ms": 310,
      "note": 68,
      "frequency_hz": 415,
      "loudness_level": 3,
      "velocity": 114
    },
    {
      "start_ms": 152766,
      "duration_ms": 244,
      "gate_ms": 220,
      "note": 63,
      "frequency_hz": 311,
      "loudness_level": 3,
      "velocity": 125
    },
    {
      "start_ms": 153010,
      "duration_ms": 89,
      "rest": true
    },
    {
      "start_ms": 153099,
      "duration_ms": 392,
      "gate_ms": 352,
      "note": 64,
      "frequency_hz": 330,
      "loudness_level": 3,
      "velocity": 125
    },
    {
      "start_ms": 153491,
      "duration_ms": 275,
      "rest": true
    },
    {
      "start_ms": 153766,
      "duration_ms": 156,
      "gate_ms": 140,
      "note": 68,
      "frequency_hz": 415,
      "loudness_level": 3,
      "velocity": 127
    },
    {
      "start_ms": 153922,
      "duration_ms": 11,
      "rest": true
    },
    {
      "start_ms": 153933,
      "duration_ms": 267,
      "gate_ms": 240,
      "note": 66,
      "frequency_hz": 370,
      "loudness_level": 3,
      "velocity": 125
    },
    {
      "start_ms": 154200,
      "duration_ms": 67,
      "rest": true
    },
    {
      "start_ms": 154267,
      "duration_ms": 94,
      "gate_ms": 85,
      "note": 66,
      "frequency_hz": 370,
      "loudness_level": 3,
      "velocity": 114
    },
    {
      "start_ms": 154361,
      "duration_ms": 72,
      "rest": true
    },
    {
      "start_ms": 154433,
      "duration_ms": 544,
      "gate_ms": 490,
      "note": 64,
      "frequency_hz": 330,
      "loudness_level": 3,
      "velocity": 125
    },
    {
      "start_ms": 154977,
      "duration_ms": 122,
      "rest": true
    },
    {
      "start_ms": 155099,
      "duration_ms": 194,
      "gate_ms": 175,
      "note": 64,
      "frequency_hz": 330,
      "loudness_level": 3,
      "velocity": 105
    },
    {
      "start_ms": 155293,
      "duration_ms": 139,
      "rest": true
    },
    {
      "start_ms": 155432,
      "duration_ms": 78,
      "gate_ms": 70,
      "note": 64,
      "frequency_hz": 330,
      "loudness_level": 3,
      "velocity": 105
    },
    {
      "start_ms": 155510,
      "duration_ms": 89,
      "rest": true
    },
    {
      "start_ms": 155599,
      "duration_ms": 311,
      "gate_ms": 280,
      "note": 64,
      "frequency_hz": 330,
      "loudness_level": 3,
      "velocity": 114
    },
    {
      "start_ms": 155910,
      "duration_ms": 189,
      "rest": true
    },
    {
      "start_ms": 156099,
      "duration_ms": 675,
      "gate_ms": 607,
      "note": 64,
      "frequency_hz": 330,
      "loudness_level": 3,
      "velocity": 119
    },
    {
      "start_ms": 156774,
      "duration_ms": 658,
      "rest": true
    },
    {
      "start_ms": 157432,
      "duration_ms": 256,
      "gate_ms": 230,
      "note": 69,
      "frequency_hz": 440,
      "loudness_level": 3,
      "velocity": 119
    },
    {
      "start_ms": 157688,
      "duration_ms": 78,
      "rest": true
    },
    {
      "start_ms": 157766,
      "duration_ms": 147,
      "gate_ms": 132,
      "note": 71,
      "frequency_hz": 494,
      "loudness_level": 3,
      "velocity": 110
    },
    {
      "start_ms": 157913,
      "duration_ms": 186,
      "rest": true
    },
    {
      "start_ms": 158099,
      "duration_ms": 108,
      "gate_ms": 97,
      "note": 73,
      "frequency_hz": 554,
      "loudness_level": 3,
      "velocity": 101
    },
    {
      "start_ms": 158207,
      "duration_ms": 58,
      "rest": true
    },
    {
      "start_ms": 158265,
      "duration_ms": 472,
      "gate_ms": 425,
      "note": 71,
      "frequency_hz": 494,
      "loudness_level": 3,
      "velocity": 105
    },
    {
      "start_ms": 158737,
      "duration_ms": 28,
      "rest": true
    },
    {
      "start_ms": 158765,
      "duration_ms": 992,
      "gate_ms": 892,
      "note": 68,
      "frequency_hz": 415,
      "loudness_level": 3,
      "velocity": 110
    },
    {
      "start_ms": 159757,
      "duration_ms": 342,
      "rest": true
    },
    {
      "start_ms": 160099,
      "duration_ms": 269,
      "gate_ms": 242,
      "note": 69,
      "frequency_hz": 440,
      "loudness_level": 3,
      "velocity": 114
    },
    {
      "start_ms": 160368,
      "duration_ms": 64,
      "rest": true
    },
    {
      "start_ms": 160432,
      "duration_ms": 142,
      "gate_ms": 127,
      "note": 71,
      "frequency_hz": 494,
      "loudness_level": 3,
      "velocity": 119
    },
    {
      "start_ms": 160574,
      "duration_ms": 192,
      "rest": true
    },
    {
      "start_ms": 160766,
      "duration_ms": 117,
      "gate_ms": 105,
      "note": 73,
      "frequency_hz": 554,
      "loudness_level": 3,
      "velocity": 101
    },
    {
      "start_ms": 160883,
      "duration_ms": 50,
      "rest": true
    },
    {
      "start_ms": 160933,
      "duration_ms": 414,
      "gate_ms": 372,
      "note": 71,
      "frequency_hz": 494,
      "loudness_level": 3,
      "velocity": 110
    },
    {
      "start_ms": 161347,
      "duration_ms": 86,
      "rest": true
    },
    {
      "start_ms": 161433,
      "duration_ms": 1056,
      "gate_ms": 950,
      "note": 68,
      "frequency_hz": 415,
      "loudness_level": 3,
      "velocity": 110
    },
    {
      "start_ms": 162489,
      "duration_ms": 278,
      "rest": true
    },
    {
      "start_ms": 162767,
      "duration_ms": 308,
      "gate_ms": 277,
      "note": 64,
      "frequency_hz": 330,
      "loudness_level": 3,
      "velocity": 125
    },
    {
      "start_ms": 163075,
      "duration_ms": 25,
      "rest": true
    },
    {
      "start_ms": 163100,
      "duration_ms": 267,
      "gate_ms": 240,
      "note": 63,
      "frequency_hz": 311,
      "loudness_level": 3,
      "velocity": 105
    },
    {
      "start_ms": 163367,
      "duration_ms": 67,
      "rest": true
    },
    {
      "start_ms": 163434,
      "duration_ms": 153,
      "gate_ms": 137,
      "note": 64,
      "frequency_hz": 330,
      "loudness_level": 3,
      "velocity": 114
    },
    {
      "start_ms": 163587,
      "duration_ms": 14,
      "rest": true
    },
    {
      "start_ms": 163601,
      "duration_ms": 733,
      "gate_ms": 660,
      "note": 66,
      "frequency_hz": 370,
      "loudness_level": 3,
      "velocity": 119
    },
    {
      "start_ms": 164334,
      "duration_ms": 100,
      "rest": true
    },
    {
      "start_ms": 164434,
      "duration_ms": 108,
      "gate_ms": 97,
      "note": 68,
      "frequency_hz": 415,
      "loudness_level": 3,
      "velocity": 119
    },
    {
      "start_ms": 164542,
      "duration_ms": 58,
      "rest": true
    },
    {
      "start_ms": 164600,
      "duration_ms": 194,
      "gate_ms": 175,
      "note": 66,
      "frequency_hz": 370,
      "loudness_level": 3,
      "velocity": 125
    },
    {
      "start_ms": 164794,
      "duration_ms": 139,
      "rest": true
    },
    {
      "start_ms": 164933,
      "duration_ms": 61,
      "gate_ms": 55,
      "note": 66,
      "frequency_hz": 370,
      "loudness_level": 3,
      "velocity": 110
    },
    {
      "start_ms": 164994,
      "duration_ms": 106,
      "rest": true
    },
    {
      "start_ms": 165100,
      "duration_ms": 606,
      "gate_ms": 545,
      "note": 64,
      "frequency_hz": 330,
      "loudness_level": 3,
      "velocity": 125
    },
    {
      "start_ms": 165706,
      "duration_ms": 61,
      "rest": true
    },
    {
      "start_ms": 165767,
      "duration_ms": 386,
      "gate_ms": 347,
      "note": 66,
      "frequency_hz": 370,
      "loudness_level": 3,
      "velocity": 110
    },
    {
      "start_ms": 166153,
      "duration_ms": 114,
      "rest": true
    },
    {
      "start_ms": 166267,
      "duration_ms": 906,
      "gate_ms": 815,
      "note": 64,
      "frequency_hz": 330,
      "loudness_level": 3,
      "velocity": 119
    },
    {
      "start_ms": 167173,
      "duration_ms": 261,
      "rest": true
    },
    {
      "start_ms": 167434,
      "duration_ms": 167,
      "gate_ms": 150,
      "note": 64,
      "frequency_hz": 330,
      "loudness_level": 3,
      "velocity": 119
    },
    {
      "start_ms": 167601,
      "duration_ms": 167,
      "rest": true
    },
    {
      "start_ms": 167768,
      "duration_ms": 158,
      "gate_ms": 142,
      "note": 69,
      "frequency_hz": 440,
      "loudness_level": 3,
      "velocity": 110
    },
    {
      "start_ms": 167926,
      "duration_ms": 175,
      "rest": true
    },
    {
      "start_ms": 168101,
      "duration_ms": 147,
      "gate_ms": 132,
      "note": 69,
      "frequency_hz": 440,
      "loudness_level": 3,
      "velocity": 110
    },
    {
      "start_ms": 168248,
      "duration_ms": 186,
      "rest": true
    },
    {
      "start_ms": 168434,
      "duration_ms": 206,
      "gate_ms": 185,
      "note": 71,
      "frequency_hz": 494,
      "loudness_level": 3,
      "velocity": 110
    },
    {
      "start_ms": 168640,
      "duration_ms": 128,
      "rest": true
    },
    {
      "start_ms": 168768,
      "duration_ms": 111,
      "gate_ms": 100,
      "note": 73,
      "frequency_hz": 554,
      "loudness_level": 3,
      "velocity": 105
    },
    {
      "start_ms": 168879,
      "duration_ms": 56,
      "rest": true
    },
    {
      "start_ms": 168935,
      "duration_ms": 456,
      "gate_ms": 410,
      "note": 71,
      "frequency_hz": 494,
      "loudness_level": 3,
      "velocity": 114
    },
    {
      "start_ms": 169391,
      "duration_ms": 44,
      "rest": true
    },
    {
      "start_ms": 169435,
      "duration_ms": 478,
      "gate_ms": 430,
      "note": 68,
      "frequency_hz": 415,
      "loudness_level": 3,
      "velocity": 114
    },
    {
      "start_ms": 169913,
      "duration_ms": 189,
      "rest": true
    },
    {
      "start_ms": 170102,
      "duration_ms": 94,
      "gate_ms": 85,
      "note": 68,
      "frequency_hz": 415,
      "loudness_level": 3,
      "velocity": 114
    },
    {
      "start_ms": 170196,
      "duration_ms": 239,
      "rest": true
    },
    {
      "start_ms": 170435,
      "duration_ms": 364,
      "gate_ms": 327,
      "note": 71,
      "frequency_hz": 494,
      "loudness_level": 3,
      "velocity": 114
    },
    {
      "start_ms": 170799,
      "duration_ms": 136,
      "rest": true
    },
    {
      "start_ms": 170935,
      "duration_ms": 100,
      "gate_ms": 90,
      "note": 71,
      "frequency_hz": 494,
      "loudness_level": 3,
      "velocity": 105
    },
    {
      "start_ms": 171035,
      "duration_ms": 67,
      "rest": true
    },
    {
      "start_ms": 171102,
      "duration_ms": 236,
      "gate_ms": 212,
      "note": 73,
      "frequency_hz": 554,
      "loudness_level": 3,
      "velocity": 119
    },
    {
      "start_ms": 171338,
      "duration_ms": 97,
      "rest": true
    },
    {
      "start_ms": 171435,
      "duration_ms": 86,
      "gate_ms": 77,
      "note": 71,
      "frequency_hz": 494,
      "loudness_level": 3,
      "velocity": 105
    },
    {
      "start_ms": 171521,
      "duration_ms": 81,
      "rest": true
    },
    {
      "start_ms": 171602,
      "duration_ms": 367,
      "gate_ms": 330,
      "note": 71,
      "frequency_hz": 494,
      "loudness_level": 3,
      "velocity": 114
    },
    {
      "start_ms": 171969,
      "duration_ms": 133,
      "rest": true
    },
    {
      "start_ms": 172102,
      "duration_ms": 942,
      "gate_ms": 847,
      "note": 68,
      "frequency_hz": 415,
      "loudness_level": 3,
      "velocity": 125
    },
    {
      "start_ms": 173044,
      "duration_ms": 392,
      "rest": true
    },
    {
      "start_ms": 173436,
      "duration_ms": 89,
      "gate_ms": 80,
      "note": 66,
      "frequency_hz": 370,
      "loudness_level": 3,
      "velocity": 119
    },
    {
      "start_ms": 173525,
      "duration_ms": 78,
      "rest": true
    },
    {
      "start_ms": 173603,
      "duration_ms": 106,
      "gate_ms": 95,
      "note": 66,
      "frequency_hz": 370,
      "loudness_level": 3,
      "velocity": 114
    },
    {
      "start_ms": 173709,
      "duration_ms": 61,
      "rest": true
    },
    {
      "start_ms": 173770,
      "duration_ms": 344,
      "gate_ms": 310,
      "note": 68,
      "frequency_hz": 415,
      "loudness_level": 3,
      "velocity": 114
    },
    {
      "start_ms": 174114,
      "duration_ms": 244,
      "gate_ms": 220,
      "note": 63,
      "frequency_hz": 311,
      "loudness_level": 3,
      "velocity": 125
    },
    {
      "start_ms": 174358,
      "duration_ms": 89,
      "rest": true
    },
    {
      "start_ms": 174447,
      "duration_ms": 392,
      "gate_ms": 352,
      "note": 64,
      "frequency_hz": 330,
      "loudness_level": 3,
      "velocity": 125
    },
    {
      "start_ms": 174839,
      "duration_ms": 275,
      "rest": true
    },
    {
      "start_ms": 175114,
      "duration_ms": 125,
      "gate_ms": 112,
      "note": 68,
      "frequency_hz": 415,
      "loudness_level": 3,
      "velocity": 125
    },
    {
      "start_ms": 175239,
      "duration_ms": 42,
      "rest": true
    },
    {
      "start_ms": 175281,
      "duration_ms": 158,
      "gate_ms": 142,
      "note": 66,
      "frequency_hz": 370,
      "loudness_level": 3,
      "velocity": 119
    },
    {
      "start_ms": 175439,
      "duration_ms": 175,
      "rest": true
    },
    {
      "start_ms": 175614,
      "duration_ms": 86,
      "gate_ms": 77,
      "note": 66,
      "frequency_hz": 370,
      "loudness_level": 3,
      "velocity": 125
    },
    {
      "start_ms": 175700,
      "duration_ms": 81,
      "rest": true
    },
    {
      "start_ms": 175781,
      "duration_ms": 544,
      "gate_ms": 490,
      "note": 64,
      "frequency_hz": 330,
      "loudness_level": 3,
      "velocity": 125
    },
    {
      "start_ms": 176325,
      "duration_ms": 122,
      "rest": true
    },
    {
      "start_ms": 176447,
      "duration_ms": 194,
      "gate_ms": 175,
      "note": 64,
      "frequency_hz": 330,
      "loudness_level": 3,
      "velocity": 105
    },
    {
      "start_ms": 176641,
      "duration_ms": 139,
      "rest": true
    },
    {
      "start_ms": 176780,
      "duration_ms": 78,
      "gate_ms": 70,
      "note": 64,
      "frequency_hz": 330,
      "loudness_level": 3,
      "velocity": 105
    },
    {
      "start_ms": 176858,
      "duration_ms": 89,
      "rest": true
    },
    {
      "start_ms": 176947,
      "duration_ms": 311,
      "gate_ms": 280,
      "note": 64,
      "frequency_hz": 330,
      "loudness_level": 3,
      "velocity": 114
    },
    {
      "start_ms": 177258,
      "duration_ms": 189,
      "rest": true
    },
    {
      "start_ms": 177447,
      "duration_ms": 675,
      "gate_ms": 607,
      "note": 64,
      "frequency_hz": 330,
      "loudness_level": 3,
      "velocity": 119
    },
    {
      "start_ms": 178122,
      "duration_ms": 658,
      "rest": true
    },
    {
      "start_ms": 178780,
      "duration_ms": 256,
      "gate_ms": 230,
      "note": 69,
      "frequency_hz": 440,
      "loudness_level": 3,
      "velocity": 119
    },
    {
      "start_ms": 179036,
      "duration_ms": 78,
      "rest": true
    },
    {
      "start_ms": 179114,
      "duration_ms": 147,
      "gate_ms": 132,
      "note": 71,
      "frequency_hz": 494,
      "loudness_level": 3,
      "velocity": 110
    },
    {
      "start_ms": 179261,
      "duration_ms": 186,
      "rest": true
    },
    {
      "start_ms": 179447,
      "duration_ms": 108,
      "gate_ms": 97,
      "note": 73,
      "frequency_hz": 554,
      "loudness_level": 3,
      "velocity": 101
    },
    {
      "start_ms": 179555,
      "duration_ms": 58,
      "rest": true
    },
    {
      "start_ms": 179613,
      "duration_ms": 472,
      "gate_ms": 425,
      "note": 71,
      "frequency_hz": 494,
      "loudness_level": 3,
      "velocity": 105
    },
    {
      "start_ms": 180085,
      "duration_ms": 28,
      "rest": true
    },
    {
      "start_ms": 180113,
      "duration_ms": 992,
      "gate_ms": 892,
      "note": 68,
      "frequency_hz": 415,
      "loudness_level": 3,
      "velocity": 110
    },
    {
      "start_ms": 181105,
      "duration_ms": 342,
      "rest": true
    },
    {
      "start_ms": 181447,
      "duration_ms": 269,
      "gate_ms": 242,
      "note": 69,
      "frequency_hz": 440,
      "loudness_level": 3,
      "velocity": 114
    },
    {
      "start_ms": 181716,
      "duration_ms": 64,
      "rest": true
    },
    {
      "start_ms": 181780,
      "duration_ms": 142,
      "gate_ms": 127,
      "note": 71,
      "frequency_hz": 494,
      "loudness_level": 3,
      "velocity": 119
    },
    {
      "start_ms": 181922,
      "duration_ms": 192,
      "rest": true
    },
    {
      "start_ms": 182114,
      "duration_ms": 117,
      "gate_ms": 105,
      "note": 73,
      "frequency_hz": 554,
      "loudness_level": 3,
      "velocity": 101
    },
    {
      "start_ms": 182231,
      "duration_ms": 50,
      "rest": true
    },
    {
      "start_ms": 182281,
      "duration_ms": 414,
      "gate_ms": 372,
      "note": 71,
      "frequency_hz": 494,
      "loudness_level": 3,
      "velocity": 110
    },
    {
      "start_ms": 182695,
      "duration_ms": 86,
      "rest": true
    },
    {
      "start_ms": 182781,
      "duration_ms": 1056,
      "gate_ms": 950,
      "note": 68,
      "frequency_hz": 415,
      "loudness_level": 3,
      "velocity": 110
    },
    {
      "start_ms": 183837,
      "duration_ms": 278,
      "rest": true
    },
    {
      "start_ms": 184115,
      "duration_ms": 308,
      "gate_ms": 277,
      "note": 64,
      "frequency_hz": 330,
      "loudness_level": 3,
      "velocity": 125
    },
    {
      "start_ms": 184423,
      "duration_ms": 25,
      "rest": true
    },
    {
      "start_ms": 184448,
      "duration_ms": 267,
      "gate_ms": 240,
      "note": 63,
      "frequency_hz": 311,
      "loudness_level": 3,
      "velocity": 105
    },
    {
      "start_ms": 184715,
      "duration_ms": 67,
      "rest": true
    },
    {
      "start_ms": 184782,
      "duration_ms": 153,
      "gate_ms": 137,
      "note": 64,
      "frequency_hz": 330,
      "loudness_level": 3,
      "velocity": 114
    },
    {
      "start_ms": 184935,
      "duration_ms": 14,
      "rest": true
    },
    {
      "start_ms": 184949,
      "duration_ms": 733,
      "gate_ms": 660,
      "note": 66,
      "frequency_hz": 370,
      "loudness_level": 3,
      "velocity": 119
    },
    {
      "start_ms": 185682,
      "duration_ms": 100,
      "rest": true
    },
    {
      "start_ms": 185782,
      "duration_ms": 108,
      "gate_ms": 97,
      "note": 68,
      "frequency_hz": 415,
      "loudness_level": 3,
      "velocity": 119
    },
    {
      "start_ms": 185890,
      "duration_ms": 58,
      "rest": true
    },
    {
      "start_ms": 185948,
      "duration_ms": 194,
      "gate_ms": 175,
      "note": 66,
      "frequency_hz": 370,
      "loudness_level": 3,
      "velocity": 125
    },
    {
      "start_ms": 186142,
      "duration_ms": 139,
      "rest": true
    },
    {
      "start_ms": 186281,
      "duration_ms": 61,
      "gate_ms": 55,
      "note": 66,
      "frequency_hz": 370,
      "loudness_level": 3,
      "velocity": 110
    },
    {
      "start_ms": 186342,
      "duration_ms": 106,
      "rest": true
    },
    {
      "start_ms": 186448,
      "duration_ms": 606,
      "gate_ms": 545,
      "note": 64,
      "frequency_hz": 330,
      "loudness_level": 3,
      "velocity": 125
    },
    {
      "start_ms": 187054,
      "duration_ms": 61,
      "rest": true
    },
    {
      "start_ms": 187115,
      "duration_ms": 386,
      "gate_ms": 347,
      "note": 66,
      "frequency_hz": 370,
      "loudness_level": 3,
      "velocity": 110
    },
    {
      "start_ms": 187501,
      "duration_ms": 114,
      "rest": true
    },
    {
      "start_ms": 187615,
      "duration_ms": 906,
      "gate_ms": 815,
      "note": 64,
      "frequency_hz": 330,
      "loudness_level": 3,
      "velocity": 119
    },
    {
      "start_ms": 188521,
      "duration_ms": 261,
      "rest": true
    },
    {
      "start_ms": 188782,
      "duration_ms": 167,
      "gate_ms": 150,
      "note": 64,
      "frequency_hz": 330,
      "loudness_level": 3,
      "velocity": 119
    },
    {
      "start_ms": 188949,
      "duration_ms": 167,
      "rest": true
    },
    {
      "start_ms": 189116,
      "duration_ms": 158,
      "gate_ms": 142,
      "note": 69,
      "frequency_hz": 440,
      "loudness_level": 3,
      "velocity": 110
    },
    {
      "start_ms": 189274,
      "duration_ms": 175,
      "rest": true
    },
    {
      "start_ms": 189449,
      "duration_ms": 147,
      "gate_ms": 132,
      "note": 69,
      "frequency_hz": 440,
      "loudness_level": 3,
      "velocity": 110
    },
    {
      "start_ms": 189596,
      "duration_ms": 186,
      "rest": true
    },
    {
      "start_ms": 189782,
      "duration_ms": 206,
      "gate_ms": 185,
      "note": 71,
      "frequency_hz": 494,
      "loudness_level": 3,
      "velocity": 110
    },
    {
      "start_ms": 189988,
      "duration_ms": 128,
      "rest": true
    },
    {
      "start_ms": 190116,
      "duration_ms": 111,
      "gate_ms": 100,
      "note": 73,
      "frequency_hz": 554,
      "loudness_level": 3,
      "velocity": 105
    },
    {
      "start_ms": 190227,
      "duration_ms": 56,
      "rest": true
    },
    {
      "start_ms": 190283,
      "duration_ms": 456,
      "gate_ms": 410,
      "note": 71,
      "frequency_hz": 494,
      "loudness_level": 3,
      "velocity": 114
    },
    {
      "start_ms": 190739,
      "duration_ms": 44,
      "rest": true
    },
    {
      "start_ms": 190783,
      "duration_ms": 478,
      "gate_ms": 430,
      "note": 68,
      "frequency_hz": 415,
      "loudness_level": 3,
      "velocity": 114
    },
    {
      "start_ms": 191261,
      "duration_ms": 189,
      "rest": true
    },
    {
      "start_ms": 191450,
      "duration_ms": 94,
      "gate_ms": 85,
      "note": 68,
      "frequency_hz": 415,
      "loudness_level": 3,
      "velocity": 114
    },
    {
      "start_ms": 191544,
      "duration_ms": 239,
      "rest": true
    },
    {
      "start_ms": 191783,
      "duration_ms": 364,
      "gate_ms": 327,
      "note": 71,
      "frequency_hz": 494,
      "loudness_level": 3,
      "velocity": 114
    },
    {
      "start_ms": 192147,
      "duration_ms": 136,
      "rest": true
    },
    {
      "start_ms": 192283,
      "duration_ms": 100,
      "gate_ms": 90,
      "note": 71,
      "frequency_hz": 494,
      "loudness_level": 3,
      "velocity": 105
    },
    {
      "start_ms": 192383,
      "duration_ms": 67,
      "rest": true
    },
    {
      "start_ms": 192450,
      "duration_ms": 236,
      "gate_ms": 212,
      "note": 73,
      "frequency_hz": 554,
      "loudness_level": 3,
      "velocity": 119
    },
    {
      "start_ms": 192686,
      "duration_ms": 97,
      "rest": true
    },
    {
      "start_ms": 192783,
      "duration_ms": 86,
      "gate_ms": 77,
      "note": 71,
      "frequency_hz": 494,
      "loudness_level": 3,
      "velocity": 105
    },
    {
      "start_ms": 192869,
      "duration_ms": 81,
      "rest": true
    },
    {
      "start_ms": 192950,
      "duration_ms": 367,
      "gate_ms": 330,
      "note": 71,
      "frequency_hz": 494,
      "loudness_level": 3,
      "velocity": 114
    },
    {
      "start_ms": 193317,
      "duration_ms": 133,
      "rest": true
    },
    {
      "start_ms": 193450,
      "duration_ms": 942,
      "gate_ms": 847,
      "note": 68,
      "frequency_hz": 415,
      "loudness_level": 3,
      "velocity": 125
    },
    {
      "start_ms": 194392,
      "duration_ms": 392,
      "rest": true
    },
    {
      "start_ms": 194784,
      "duration_ms": 89,
      "gate_ms": 80,
      "note": 66,
      "frequency_hz": 370,
      "loudness_level": 3,
      "velocity": 119
    },
    {
      "start_ms": 194873,
      "duration_ms": 78,
      "rest": true
    },
    {
      "start_ms": 194951,
      "duration_ms": 106,
      "gate_ms": 95,
      "note": 66,
      "frequency_hz": 370,
      "loudness_level": 3,
      "velocity": 114
    },
    {
      "start_ms": 195057,
      "duration_ms": 61,
      "rest": true
    },
    {
      "start_ms": 195118,
      "duration_ms": 344,
      "gate_ms": 310,
      "note": 68,
      "frequency_hz": 415,
      "loudness_level": 3,
      "velocity": 114
    },
    {
      "start_ms": 195462,
      "duration_ms": 167,
      "gate_ms": 150,
      "note": 63,
      "frequency_hz": 311,
      "loudness_level": 3,
      "velocity": 125
    },
    {
      "start_ms": 195629,
      "duration_ms": 4589,
      "gate_ms": 4130,
      "note": 64,
      "frequency_hz": 330,
      "loudness_level": 3,
      "velocity": 125
    }
  ]
}